<svg width="468" height="204" viewBox="0 0 468 204" fill="none" xmlns="http://www.w3.org/2000/svg">
<path d="M0.65625 19V8.81445H7.51953V10.5918H2.80273V12.9844H7.16406V14.7275H2.80273V17.2227H7.5332V19H0.65625ZM10.8555 14.584V19H8.74316V11.3574H10.8213V12.7178H10.8965C11.0697 12.2666 11.3454 11.9111 11.7236 11.6514C12.1019 11.3916 12.5758 11.2617 13.1455 11.2617C13.6742 11.2617 14.1344 11.3779 14.5264 11.6104C14.9229 11.8428 15.2305 12.1732 15.4492 12.6016C15.668 13.0299 15.7773 13.5426 15.7773 14.1396V19H13.665V14.5156C13.665 14.0508 13.5443 13.6862 13.3027 13.4219C13.0612 13.153 12.7285 13.0186 12.3047 13.0186C12.0221 13.0186 11.7715 13.0824 11.5527 13.21C11.334 13.333 11.1631 13.5107 11.04 13.7432C10.917 13.9756 10.8555 14.2559 10.8555 14.584ZM19.8174 19.123C19.234 19.123 18.7077 18.9727 18.2383 18.6719C17.7689 18.3711 17.3975 17.929 17.124 17.3457C16.8506 16.7578 16.7139 16.04 16.7139 15.1924C16.7139 14.3174 16.8551 13.5882 17.1377 13.0049C17.4202 12.4215 17.7962 11.9863 18.2656 11.6992C18.735 11.4076 19.2477 11.2617 19.8037 11.2617C20.2321 11.2617 20.5898 11.3346 20.877 11.4805C21.1641 11.6217 21.3965 11.7995 21.5742 12.0137C21.752 12.2279 21.8864 12.4398 21.9775 12.6494H22.0391V8.81445H24.1582V19H22.0732V17.7764H21.9775C21.8818 17.986 21.7428 18.1956 21.5605 18.4053C21.3783 18.6104 21.1436 18.7812 20.8564 18.918C20.5739 19.0547 20.2275 19.123 19.8174 19.123ZM20.4805 17.4414C20.8223 17.4414 21.1117 17.348 21.3486 17.1611C21.5902 16.9697 21.7725 16.7054 21.8955 16.3682C22.0231 16.0309 22.0869 15.6367 22.0869 15.1855C22.0869 14.7298 22.0254 14.3356 21.9023 14.0029C21.7793 13.6657 21.597 13.4059 21.3555 13.2236C21.1139 13.0368 20.8223 12.9434 20.4805 12.9434C20.1341 12.9434 19.8424 13.0391 19.6055 13.2305C19.3685 13.4219 19.1885 13.6862 19.0654 14.0234C18.9424 14.3561 18.8809 14.7435 18.8809 15.1855C18.8809 15.6276 18.9424 16.0195 19.0654 16.3613C19.1885 16.6986 19.3685 16.9629 19.6055 17.1543C19.847 17.3457 20.1387 17.4414 20.4805 17.4414ZM28.834 19.1504C28.0638 19.1504 27.3962 18.9863 26.8311 18.6582C26.2705 18.3255 25.8376 17.8652 25.5322 17.2773C25.2314 16.6849 25.0811 15.9967 25.0811 15.2129C25.0811 14.4199 25.2314 13.7295 25.5322 13.1416C25.8376 12.5492 26.2705 12.0889 26.8311 11.7607C27.3962 11.4281 28.0638 11.2617 28.834 11.2617C29.6087 11.2617 30.2764 11.4281 30.8369 11.7607C31.402 12.0889 31.835 12.5492 32.1357 13.1416C32.4411 13.7295 32.5938 14.4199 32.5938 15.2129C32.5938 15.9967 32.4411 16.6849 32.1357 17.2773C31.835 17.8652 31.402 18.3255 30.8369 18.6582C30.2764 18.9863 29.6087 19.1504 28.834 19.1504ZM28.8477 17.4961C29.1986 17.4961 29.4925 17.3981 29.7295 17.2021C29.9665 17.0016 30.1442 16.7282 30.2627 16.3818C30.3857 16.0355 30.4473 15.6413 30.4473 15.1992C30.4473 14.7526 30.3857 14.3584 30.2627 14.0166C30.1442 13.6748 29.9665 13.4059 29.7295 13.21C29.4925 13.014 29.1986 12.916 28.8477 12.916C28.4922 12.916 28.1937 13.014 27.9521 13.21C27.7152 13.4059 27.5352 13.6748 27.4121 14.0166C27.2936 14.3584 27.2344 14.7526 27.2344 15.1992C27.2344 15.6413 27.2936 16.0355 27.4121 16.3818C27.5352 16.7282 27.7152 17.0016 27.9521 17.2021C28.1937 17.3981 28.4922 17.4961 28.8477 17.4961ZM33.5303 19V11.3574H35.5332V12.7178H35.6289C35.7884 12.2666 36.055 11.9111 36.4287 11.6514C36.8024 11.3916 37.2467 11.2617 37.7617 11.2617C38.2858 11.2617 38.7301 11.3939 39.0947 11.6582C39.4639 11.918 39.71 12.2712 39.833 12.7178H39.915C40.07 12.2757 40.3525 11.9225 40.7627 11.6582C41.1729 11.3939 41.6559 11.2617 42.2119 11.2617C42.9229 11.2617 43.5016 11.4873 43.9482 11.9385C44.3994 12.3896 44.625 13.0299 44.625 13.8594V19H42.5059V14.2832C42.5059 13.8548 42.3919 13.5358 42.1641 13.3262C41.9408 13.1165 41.6605 13.0117 41.3232 13.0117C40.9404 13.0117 40.6396 13.1348 40.4209 13.3809C40.2067 13.6224 40.0996 13.9414 40.0996 14.3379V19H38.0488V14.2285C38.0488 13.8594 37.9417 13.5654 37.7275 13.3467C37.5133 13.1234 37.2331 13.0117 36.8867 13.0117C36.6497 13.0117 36.4378 13.071 36.251 13.1895C36.0641 13.3079 35.916 13.472 35.8066 13.6816C35.6973 13.8867 35.6426 14.1328 35.6426 14.4199V19H33.5303ZM49.3555 19.1504C48.5716 19.1504 47.8949 18.9909 47.3252 18.6719C46.7555 18.3529 46.318 17.8994 46.0127 17.3115C45.7119 16.7191 45.5615 16.0195 45.5615 15.2129C45.5615 14.429 45.7119 13.7409 46.0127 13.1484C46.318 12.556 46.7464 12.0934 47.2979 11.7607C47.8538 11.4281 48.5055 11.2617 49.2529 11.2617C49.7588 11.2617 50.2305 11.3438 50.668 11.5078C51.1055 11.6673 51.4883 11.9089 51.8164 12.2324C52.1445 12.5514 52.3997 12.9548 52.582 13.4424C52.7643 13.9255 52.8555 14.4928 52.8555 15.1445V15.7188H46.4023V14.4131H51.8301L50.8457 14.7549C50.8457 14.3675 50.7865 14.0303 50.668 13.7432C50.5495 13.4561 50.3717 13.235 50.1348 13.0801C49.9023 12.9206 49.613 12.8408 49.2666 12.8408C48.9202 12.8408 48.6263 12.9206 48.3848 13.0801C48.1478 13.2396 47.9655 13.4561 47.8379 13.7295C47.7103 14.0029 47.6465 14.3174 47.6465 14.6729V15.5957C47.6465 16.0104 47.7194 16.3659 47.8652 16.6621C48.0111 16.9538 48.2139 17.1794 48.4736 17.3389C48.738 17.4938 49.041 17.5713 49.3828 17.5713C49.6198 17.5713 49.834 17.5371 50.0254 17.4688C50.2168 17.4004 50.3809 17.3001 50.5176 17.168C50.6589 17.0358 50.7637 16.8763 50.832 16.6895L52.7871 16.8193C52.6914 17.2887 52.4909 17.6989 52.1855 18.0498C51.8848 18.3962 51.4951 18.6673 51.0166 18.8633C50.5381 19.0547 49.9844 19.1504 49.3555 19.1504ZM57.8184 11.3574V12.957H53.2178V11.3574H57.8184ZM54.2637 9.53906H56.376V16.6484C56.376 16.9036 56.4329 17.0928 56.5469 17.2158C56.6608 17.3343 56.8431 17.3936 57.0938 17.3936C57.1758 17.3936 57.2669 17.3867 57.3672 17.373C57.4674 17.3594 57.554 17.3434 57.627 17.3252L57.9619 18.9111C57.7295 18.9795 57.5039 19.0296 57.2852 19.0615C57.071 19.0934 56.859 19.1094 56.6494 19.1094C55.8883 19.1094 55.3005 18.9202 54.8857 18.542C54.471 18.1592 54.2637 17.6214 54.2637 16.9287V9.53906ZM58.7412 19V11.3574H60.7852V12.6973H60.8672C61.0085 12.2233 61.2432 11.8656 61.5713 11.624C61.8994 11.3779 62.2754 11.2549 62.6992 11.2549C62.8086 11.2549 62.9225 11.2617 63.041 11.2754C63.1641 11.2845 63.2734 11.3027 63.3691 11.3301V13.2031C63.2689 13.1712 63.1299 13.1462 62.9521 13.1279C62.779 13.1051 62.6172 13.0938 62.4668 13.0938C62.1615 13.0938 61.8857 13.1621 61.6396 13.2988C61.3936 13.431 61.1999 13.6178 61.0586 13.8594C60.9219 14.0964 60.8535 14.3698 60.8535 14.6797V19H58.7412ZM64.0049 19V11.3574H66.1172V19H64.0049ZM65.0576 10.3799C64.7432 10.3799 64.4743 10.2751 64.251 10.0654C64.0277 9.85579 63.916 9.60286 63.916 9.30664C63.916 9.01042 64.0277 8.75977 64.251 8.55469C64.4743 8.34505 64.7432 8.24023 65.0576 8.24023C65.3766 8.24023 65.6478 8.34505 65.8711 8.55469C66.0944 8.75977 66.2061 9.01042 66.2061 9.30664C66.2061 9.60286 66.0944 9.85579 65.8711 10.0654C65.6478 10.2751 65.3766 10.3799 65.0576 10.3799ZM70.8066 19.1504C70.0365 19.1504 69.3688 18.9863 68.8037 18.6582C68.2432 18.3255 67.8102 17.8652 67.5049 17.2773C67.2041 16.6849 67.0537 15.9967 67.0537 15.2129C67.0537 14.4199 67.2041 13.7295 67.5049 13.1416C67.8102 12.5492 68.2432 12.0889 68.8037 11.7607C69.3688 11.4281 70.0365 11.2617 70.8066 11.2617C71.5814 11.2617 72.249 11.4281 72.8096 11.7607C73.3747 12.0889 73.8076 12.5492 74.1084 13.1416C74.4137 13.7295 74.5664 14.4199 74.5664 15.2129C74.5664 15.9967 74.4137 16.6849 74.1084 17.2773C73.8076 17.8652 73.3747 18.3255 72.8096 18.6582C72.249 18.9863 71.5814 19.1504 70.8066 19.1504ZM70.8203 17.4961C71.1712 17.4961 71.4652 17.3981 71.7021 17.2021C71.9391 17.0016 72.1169 16.7282 72.2354 16.3818C72.3584 16.0355 72.4199 15.6413 72.4199 15.1992C72.4199 14.7526 72.3584 14.3584 72.2354 14.0166C72.1169 13.6748 71.9391 13.4059 71.7021 13.21C71.4652 13.014 71.1712 12.916 70.8203 12.916C70.4648 12.916 70.1663 13.014 69.9248 13.21C69.6878 13.4059 69.5078 13.6748 69.3848 14.0166C69.2663 14.3584 69.207 14.7526 69.207 15.1992C69.207 15.6413 69.2663 16.0355 69.3848 16.3818C69.5078 16.7282 69.6878 17.0016 69.9248 17.2021C70.1663 17.3981 70.4648 17.4961 70.8203 17.4961ZM81.8467 13.5381L79.9121 13.6543C79.862 13.4128 79.7275 13.2054 79.5088 13.0322C79.29 12.8545 78.9961 12.7656 78.627 12.7656C78.2988 12.7656 78.0231 12.834 77.7998 12.9707C77.5811 13.1074 77.4717 13.2897 77.4717 13.5176C77.4717 13.6999 77.5423 13.8571 77.6836 13.9893C77.8294 14.1169 78.0778 14.2171 78.4287 14.29L79.8164 14.5635C80.5592 14.7139 81.113 14.9577 81.4775 15.2949C81.8421 15.6322 82.0244 16.0765 82.0244 16.6279C82.0244 17.1338 81.8786 17.5758 81.5869 17.9541C81.2952 18.3278 80.8942 18.6217 80.3838 18.8359C79.8734 19.0456 79.2878 19.1504 78.627 19.1504C77.6152 19.1504 76.8086 18.9385 76.207 18.5146C75.61 18.0908 75.2614 17.5166 75.1611 16.792L77.2324 16.6826C77.3008 16.9925 77.4557 17.2272 77.6973 17.3867C77.9388 17.5462 78.2487 17.626 78.627 17.626C78.9961 17.626 79.2946 17.5531 79.5225 17.4072C79.7549 17.2614 79.8711 17.0768 79.8711 16.8535C79.8711 16.4753 79.543 16.2201 78.8867 16.0879L77.5674 15.8145C76.8245 15.6641 76.2708 15.4066 75.9062 15.042C75.5417 14.6774 75.3594 14.2103 75.3594 13.6406C75.3594 13.1484 75.4938 12.7246 75.7627 12.3691C76.0316 12.0137 76.4076 11.7402 76.8906 11.5488C77.3783 11.3574 77.9479 11.2617 78.5996 11.2617C79.5658 11.2617 80.3245 11.4668 80.876 11.877C81.432 12.2826 81.7555 12.8363 81.8467 13.5381ZM86.3926 19.1504C85.6087 19.1504 84.932 18.9909 84.3623 18.6719C83.7926 18.3529 83.3551 17.8994 83.0498 17.3115C82.749 16.7191 82.5986 16.0195 82.5986 15.2129C82.5986 14.429 82.749 13.7409 83.0498 13.1484C83.3551 12.556 83.7835 12.0934 84.335 11.7607C84.891 11.4281 85.5426 11.2617 86.29 11.2617C86.7959 11.2617 87.2676 11.3438 87.7051 11.5078C88.1426 11.6673 88.5254 11.9089 88.8535 12.2324C89.1816 12.5514 89.4368 12.9548 89.6191 13.4424C89.8014 13.9255 89.8926 14.4928 89.8926 15.1445V15.7188H83.4395V14.4131H88.8672L87.8828 14.7549C87.8828 14.3675 87.8236 14.0303 87.7051 13.7432C87.5866 13.4561 87.4089 13.235 87.1719 13.0801C86.9395 12.9206 86.6501 12.8408 86.3037 12.8408C85.9574 12.8408 85.6634 12.9206 85.4219 13.0801C85.1849 13.2396 85.0026 13.4561 84.875 13.7295C84.7474 14.0029 84.6836 14.3174 84.6836 14.6729V15.5957C84.6836 16.0104 84.7565 16.3659 84.9023 16.6621C85.0482 16.9538 85.251 17.1794 85.5107 17.3389C85.7751 17.4938 86.0781 17.5713 86.4199 17.5713C86.6569 17.5713 86.8711 17.5371 87.0625 17.4688C87.2539 17.4004 87.418 17.3001 87.5547 17.168C87.696 17.0358 87.8008 16.8763 87.8691 16.6895L89.8242 16.8193C89.7285 17.2887 89.528 17.6989 89.2227 18.0498C88.9219 18.3962 88.5322 18.6673 88.0537 18.8633C87.5752 19.0547 87.0215 19.1504 86.3926 19.1504ZM92.3125 19.1299C91.9753 19.1299 91.6904 19.016 91.458 18.7881C91.2256 18.5602 91.1094 18.2777 91.1094 17.9404C91.1094 17.6032 91.2256 17.3206 91.458 17.0928C91.6904 16.8649 91.9753 16.751 92.3125 16.751C92.6497 16.751 92.9346 16.8649 93.167 17.0928C93.3994 17.3206 93.5156 17.6032 93.5156 17.9404C93.5156 18.2777 93.3994 18.5602 93.167 18.7881C92.9346 19.016 92.6497 19.1299 92.3125 19.1299ZM92.3125 14.1055C91.9753 14.1055 91.6904 13.9915 91.458 13.7637C91.2256 13.5358 91.1094 13.2533 91.1094 12.916C91.1094 12.5788 91.2256 12.2962 91.458 12.0684C91.6904 11.8405 91.9753 11.7266 92.3125 11.7266C92.6497 11.7266 92.9346 11.8405 93.167 12.0684C93.3994 12.2962 93.5156 12.5788 93.5156 12.916C93.5156 13.2533 93.3994 13.5358 93.167 13.7637C92.9346 13.9915 92.6497 14.1055 92.3125 14.1055ZM101.555 19.1367C100.853 19.1367 100.226 19.0091 99.6748 18.7539C99.1234 18.4941 98.6859 18.1364 98.3623 17.6807C98.0433 17.2249 97.877 16.7054 97.8633 16.1221H99.9551C99.9733 16.514 100.135 16.833 100.44 17.0791C100.75 17.3206 101.122 17.4414 101.555 17.4414C101.892 17.4414 102.188 17.3662 102.443 17.2158C102.703 17.0654 102.906 16.8581 103.052 16.5938C103.198 16.3249 103.271 16.0127 103.271 15.6572C103.271 15.3018 103.195 14.9873 103.045 14.7139C102.895 14.4404 102.687 14.2285 102.423 14.0781C102.163 13.9232 101.862 13.8457 101.521 13.8457C101.22 13.8457 100.93 13.9072 100.652 14.0303C100.374 14.1533 100.158 14.3197 100.003 14.5293L98.082 14.1875L98.5605 8.81445H104.788V10.5781H100.338L100.085 13.1279H100.14C100.317 12.8773 100.586 12.6699 100.946 12.5059C101.311 12.3418 101.716 12.2598 102.163 12.2598C102.774 12.2598 103.318 12.4033 103.797 12.6904C104.28 12.9775 104.66 13.3717 104.938 13.873C105.216 14.3743 105.355 14.9508 105.355 15.6025C105.355 16.2907 105.196 16.9014 104.877 17.4346C104.558 17.9632 104.111 18.3802 103.537 18.6855C102.967 18.9863 102.307 19.1367 101.555 19.1367ZM111.207 13.9824V15.6641H106.559V13.9824H111.207ZM116.867 8.81445V19H114.721V10.8584H114.659L112.335 12.3281V10.4141L114.851 8.81445H116.867ZM122.11 19.1367C121.244 19.1367 120.504 18.9316 119.889 18.5215C119.278 18.1068 118.809 17.512 118.48 16.7373C118.157 15.958 117.995 15.0169 117.995 13.9141C117.995 12.8158 118.159 11.877 118.487 11.0977C118.815 10.3138 119.285 9.71452 119.896 9.2998C120.511 8.88509 121.249 8.67773 122.11 8.67773C122.976 8.67773 123.715 8.88509 124.325 9.2998C124.94 9.71452 125.41 10.3115 125.733 11.0908C126.062 11.8701 126.226 12.8112 126.226 13.9141C126.226 15.0169 126.064 15.958 125.74 16.7373C125.417 17.512 124.947 18.1068 124.332 18.5215C123.721 18.9316 122.981 19.1367 122.11 19.1367ZM122.11 17.3594C122.525 17.3594 122.874 17.2272 123.156 16.9629C123.443 16.694 123.66 16.3021 123.806 15.7871C123.956 15.2721 124.031 14.6478 124.031 13.9141C124.031 13.1758 123.956 12.5492 123.806 12.0342C123.66 11.5192 123.443 11.1273 123.156 10.8584C122.874 10.585 122.525 10.4482 122.11 10.4482C121.495 10.4482 121.021 10.7513 120.688 11.3574C120.356 11.959 120.189 12.8112 120.189 13.9141C120.189 14.6478 120.262 15.2721 120.408 15.7871C120.559 16.3021 120.777 16.694 121.064 16.9629C121.352 17.2272 121.7 17.3594 122.11 17.3594ZM132.282 19.1436C131.799 19.1436 131.364 19.0592 130.977 18.8906C130.594 18.7174 130.293 18.4622 130.074 18.125C129.855 17.7878 129.746 17.3685 129.746 16.8672C129.746 16.4388 129.824 16.0833 129.979 15.8008C130.133 15.5137 130.345 15.2812 130.614 15.1035C130.883 14.9258 131.188 14.7913 131.53 14.7002C131.872 14.609 132.234 14.5452 132.617 14.5088C133.059 14.4678 133.415 14.4268 133.684 14.3857C133.952 14.3447 134.148 14.2832 134.271 14.2012C134.399 14.1146 134.463 13.9915 134.463 13.832V13.7979C134.463 13.4834 134.363 13.2396 134.162 13.0664C133.966 12.8932 133.688 12.8066 133.328 12.8066C132.95 12.8066 132.647 12.891 132.419 13.0596C132.196 13.2236 132.048 13.4333 131.975 13.6885L130.013 13.5312C130.113 13.0664 130.309 12.6654 130.601 12.3281C130.892 11.9863 131.268 11.7243 131.729 11.542C132.193 11.3551 132.731 11.2617 133.342 11.2617C133.766 11.2617 134.171 11.3118 134.559 11.4121C134.946 11.5124 135.29 11.6673 135.591 11.877C135.896 12.082 136.138 12.3486 136.315 12.6768C136.493 13.0049 136.582 13.3945 136.582 13.8457V19H134.565V17.9336H134.511C134.388 18.1751 134.224 18.387 134.019 18.5693C133.813 18.7471 133.567 18.8883 133.28 18.9932C132.993 19.0934 132.66 19.1436 132.282 19.1436ZM132.891 17.6807C133.201 17.6807 133.474 17.6191 133.711 17.4961C133.952 17.3685 134.139 17.1999 134.271 16.9902C134.408 16.776 134.477 16.5368 134.477 16.2725V15.459C134.413 15.5 134.322 15.5387 134.203 15.5752C134.089 15.6117 133.962 15.6436 133.82 15.6709C133.679 15.6982 133.538 15.7233 133.396 15.7461C133.255 15.7643 133.128 15.7826 133.014 15.8008C132.763 15.8372 132.544 15.8965 132.357 15.9785C132.171 16.056 132.025 16.1631 131.92 16.2998C131.82 16.432 131.77 16.5983 131.77 16.7988C131.77 17.0859 131.874 17.3047 132.084 17.4551C132.294 17.6055 132.562 17.6807 132.891 17.6807ZM133.417 10.5439C133.103 10.5439 132.815 10.471 132.556 10.3252C132.3 10.1794 132.095 9.9834 131.94 9.7373C131.79 9.49121 131.715 9.21549 131.715 8.91016C131.715 8.60938 131.79 8.33366 131.94 8.08301C132.095 7.83236 132.3 7.63184 132.556 7.48145C132.815 7.33105 133.103 7.25814 133.417 7.2627C133.731 7.25814 134.016 7.33105 134.271 7.48145C134.527 7.63184 134.729 7.83236 134.88 8.08301C135.035 8.33366 135.11 8.60938 135.105 8.91016C135.11 9.21549 135.035 9.49121 134.88 9.7373C134.729 9.9834 134.527 10.1794 134.271 10.3252C134.016 10.471 133.731 10.5439 133.417 10.5439ZM133.417 9.66211C133.636 9.65755 133.818 9.58008 133.964 9.42969C134.114 9.2793 134.189 9.10612 134.189 8.91016C134.189 8.70964 134.114 8.53418 133.964 8.38379C133.818 8.22884 133.636 8.15365 133.417 8.1582C133.194 8.1582 133.007 8.2334 132.856 8.38379C132.711 8.53418 132.638 8.70964 132.638 8.91016C132.638 9.10612 132.711 9.28158 132.856 9.43652C133.007 9.58691 133.194 9.66211 133.417 9.66211ZM137.819 19V11.3574H139.863V12.6973H139.945C140.087 12.2233 140.321 11.8656 140.649 11.624C140.978 11.3779 141.354 11.2549 141.777 11.2549C141.887 11.2549 142.001 11.2617 142.119 11.2754C142.242 11.2845 142.352 11.3027 142.447 11.3301V13.2031C142.347 13.1712 142.208 13.1462 142.03 13.1279C141.857 13.1051 141.695 13.0938 141.545 13.0938C141.24 13.0938 140.964 13.1621 140.718 13.2988C140.472 13.431 140.278 13.6178 140.137 13.8594C140 14.0964 139.932 14.3698 139.932 14.6797V19H137.819Z" fill="#1E1E1E" fill-opacity="0.7"/>
<path d="M4.26562 63H1.61328V61.1543H4.16992C4.8125 61.1543 5.35026 61.0426 5.7832 60.8193C6.2207 60.5915 6.54883 60.2383 6.76758 59.7598C6.99089 59.2767 7.10254 58.6569 7.10254 57.9004C7.10254 57.1484 6.99089 56.5332 6.76758 56.0547C6.54883 55.5762 6.2207 55.2253 5.7832 55.002C5.35026 54.7741 4.81478 54.6602 4.17676 54.6602H1.57227V52.8145H4.2998C5.3252 52.8145 6.20703 53.0195 6.94531 53.4297C7.68359 53.8353 8.25098 54.4186 8.64746 55.1797C9.04395 55.9362 9.24219 56.8431 9.24219 57.9004C9.24219 58.9622 9.04167 59.8737 8.64062 60.6348C8.24414 61.3958 7.67448 61.9814 6.93164 62.3916C6.1888 62.7972 5.30013 63 4.26562 63ZM2.80273 52.8145V63H0.65625V52.8145H2.80273ZM10.3428 63V55.3574H12.4551V63H10.3428ZM11.3955 54.3799C11.0811 54.3799 10.8122 54.2751 10.5889 54.0654C10.3656 53.8558 10.2539 53.6029 10.2539 53.3066C10.2539 53.0104 10.3656 52.7598 10.5889 52.5547C10.8122 52.3451 11.0811 52.2402 11.3955 52.2402C11.7145 52.2402 11.9857 52.3451 12.209 52.5547C12.4323 52.7598 12.5439 53.0104 12.5439 53.3066C12.5439 53.6029 12.4323 53.8558 12.209 54.0654C11.9857 54.2751 11.7145 54.3799 11.3955 54.3799ZM15.8799 63.1436C15.3968 63.1436 14.9616 63.0592 14.5742 62.8906C14.1914 62.7174 13.8906 62.4622 13.6719 62.125C13.4531 61.7878 13.3438 61.3685 13.3438 60.8672C13.3438 60.4388 13.4212 60.0833 13.5762 59.8008C13.7311 59.5137 13.943 59.2812 14.2119 59.1035C14.4808 58.9258 14.7861 58.7913 15.1279 58.7002C15.4697 58.609 15.832 58.5452 16.2148 58.5088C16.6569 58.4678 17.0124 58.4268 17.2812 58.3857C17.5501 58.3447 17.7461 58.2832 17.8691 58.2012C17.9967 58.1146 18.0605 57.9915 18.0605 57.832V57.7979C18.0605 57.4834 17.9603 57.2396 17.7598 57.0664C17.5638 56.8932 17.2858 56.8066 16.9258 56.8066C16.5475 56.8066 16.2445 56.891 16.0166 57.0596C15.7933 57.2236 15.6452 57.4333 15.5723 57.6885L13.6104 57.5312C13.7106 57.0664 13.9066 56.6654 14.1982 56.3281C14.4899 55.9863 14.8659 55.7243 15.3262 55.542C15.791 55.3551 16.3288 55.2617 16.9395 55.2617C17.3633 55.2617 17.7689 55.3118 18.1562 55.4121C18.5436 55.5124 18.8877 55.6673 19.1885 55.877C19.4938 56.082 19.7354 56.3486 19.9131 56.6768C20.0908 57.0049 20.1797 57.3945 20.1797 57.8457V63H18.1631V61.9336H18.1084C17.9854 62.1751 17.8213 62.387 17.6162 62.5693C17.4111 62.7471 17.165 62.8883 16.8779 62.9932C16.5908 63.0934 16.2581 63.1436 15.8799 63.1436ZM16.4883 61.6807C16.7982 61.6807 17.0716 61.6191 17.3086 61.4961C17.5501 61.3685 17.737 61.1999 17.8691 60.9902C18.0059 60.776 18.0742 60.5368 18.0742 60.2725V59.459C18.0104 59.5 17.9193 59.5387 17.8008 59.5752C17.6868 59.6117 17.5592 59.6436 17.418 59.6709C17.2767 59.6982 17.1354 59.7233 16.9941 59.7461C16.8529 59.7643 16.7253 59.7826 16.6113 59.8008C16.3607 59.8372 16.1419 59.8965 15.9551 59.9785C15.7682 60.056 15.6224 60.1631 15.5176 60.2998C15.4173 60.432 15.3672 60.5983 15.3672 60.7988C15.3672 61.0859 15.472 61.3047 15.6816 61.4551C15.8913 61.6055 16.1602 61.6807 16.4883 61.6807ZM25.7578 63.123C25.3477 63.123 24.999 63.0547 24.7119 62.918C24.4248 62.7812 24.1901 62.6104 24.0078 62.4053C23.8301 62.1956 23.6911 61.986 23.5908 61.7764H23.4951V63H21.417V52.8145H23.5293V56.6494H23.5908C23.6865 56.4398 23.8232 56.2279 24.001 56.0137C24.1787 55.7995 24.4111 55.6217 24.6982 55.4805C24.9854 55.3346 25.3408 55.2617 25.7646 55.2617C26.3252 55.2617 26.8379 55.4076 27.3027 55.6992C27.7721 55.9863 28.1481 56.4215 28.4307 57.0049C28.7132 57.5882 28.8545 58.3174 28.8545 59.1924C28.8545 60.04 28.7178 60.7578 28.4443 61.3457C28.1709 61.929 27.7995 62.3711 27.3301 62.6719C26.8652 62.9727 26.3411 63.123 25.7578 63.123ZM25.0879 61.4414C25.4342 61.4414 25.7259 61.3457 25.9629 61.1543C26.1999 60.9629 26.3799 60.6986 26.5029 60.3613C26.626 60.0195 26.6875 59.6276 26.6875 59.1855C26.6875 58.7435 26.626 58.3561 26.5029 58.0234C26.3844 57.6862 26.2067 57.4219 25.9697 57.2305C25.7327 57.0391 25.4388 56.9434 25.0879 56.9434C24.7461 56.9434 24.4544 57.0368 24.2129 57.2236C23.9759 57.4059 23.7936 57.6657 23.666 58.0029C23.543 58.3356 23.4814 58.7298 23.4814 59.1855C23.4814 59.6367 23.5452 60.0309 23.6729 60.3682C23.8005 60.7054 23.9827 60.9697 24.2197 61.1611C24.4613 61.348 24.7507 61.4414 25.0879 61.4414ZM33.2637 63.1504C32.4798 63.1504 31.8031 62.9909 31.2334 62.6719C30.6637 62.3529 30.2262 61.8994 29.9209 61.3115C29.6201 60.7191 29.4697 60.0195 29.4697 59.2129C29.4697 58.429 29.6201 57.7409 29.9209 57.1484C30.2262 56.556 30.6546 56.0934 31.2061 55.7607C31.762 55.4281 32.4137 55.2617 33.1611 55.2617C33.667 55.2617 34.1387 55.3438 34.5762 55.5078C35.0137 55.6673 35.3965 55.9089 35.7246 56.2324C36.0527 56.5514 36.3079 56.9548 36.4902 57.4424C36.6725 57.9255 36.7637 58.4928 36.7637 59.1445V59.7188H30.3105V58.4131H35.7383L34.7539 58.7549C34.7539 58.3675 34.6947 58.0303 34.5762 57.7432C34.4577 57.4561 34.2799 57.235 34.043 57.0801C33.8105 56.9206 33.5212 56.8408 33.1748 56.8408C32.8285 56.8408 32.5345 56.9206 32.293 57.0801C32.056 57.2396 31.8737 57.4561 31.7461 57.7295C31.6185 58.0029 31.5547 58.3174 31.5547 58.6729V59.5957C31.5547 60.0104 31.6276 60.3659 31.7734 60.6621C31.9193 60.9538 32.1221 61.1794 32.3818 61.3389C32.6462 61.4938 32.9492 61.5713 33.291 61.5713C33.528 61.5713 33.7422 61.5371 33.9336 61.4688C34.125 61.4004 34.2891 61.3001 34.4258 61.168C34.5671 61.0358 34.6719 60.8763 34.7402 60.6895L36.6953 60.8193C36.5996 61.2887 36.3991 61.6989 36.0938 62.0498C35.793 62.3962 35.4033 62.6673 34.9248 62.8633C34.4463 63.0547 33.8926 63.1504 33.2637 63.1504ZM41.7266 55.3574V56.957H37.126V55.3574H41.7266ZM38.1719 53.5391H40.2842V60.6484C40.2842 60.9036 40.3411 61.0928 40.4551 61.2158C40.569 61.3343 40.7513 61.3936 41.002 61.3936C41.084 61.3936 41.1751 61.3867 41.2754 61.373C41.3757 61.3594 41.4622 61.3434 41.5352 61.3252L41.8701 62.9111C41.6377 62.9795 41.4121 63.0296 41.1934 63.0615C40.9792 63.0934 40.7673 63.1094 40.5576 63.1094C39.7965 63.1094 39.2087 62.9202 38.7939 62.542C38.3792 62.1592 38.1719 61.6214 38.1719 60.9287V53.5391ZM46.0469 63.1504C45.263 63.1504 44.5863 62.9909 44.0166 62.6719C43.4469 62.3529 43.0094 61.8994 42.7041 61.3115C42.4033 60.7191 42.2529 60.0195 42.2529 59.2129C42.2529 58.429 42.4033 57.7409 42.7041 57.1484C43.0094 56.556 43.4378 56.0934 43.9893 55.7607C44.5452 55.4281 45.1969 55.2617 45.9443 55.2617C46.4502 55.2617 46.9219 55.3438 47.3594 55.5078C47.7969 55.6673 48.1797 55.9089 48.5078 56.2324C48.8359 56.5514 49.0911 56.9548 49.2734 57.4424C49.4557 57.9255 49.5469 58.4928 49.5469 59.1445V59.7188H43.0938V58.4131H48.5215L47.5371 58.7549C47.5371 58.3675 47.4779 58.0303 47.3594 57.7432C47.2409 57.4561 47.0632 57.235 46.8262 57.0801C46.5938 56.9206 46.3044 56.8408 45.958 56.8408C45.6117 56.8408 45.3177 56.9206 45.0762 57.0801C44.8392 57.2396 44.6569 57.4561 44.5293 57.7295C44.4017 58.0029 44.3379 58.3174 44.3379 58.6729V59.5957C44.3379 60.0104 44.4108 60.3659 44.5566 60.6621C44.7025 60.9538 44.9053 61.1794 45.165 61.3389C45.4294 61.4938 45.7324 61.5713 46.0742 61.5713C46.3112 61.5713 46.5254 61.5371 46.7168 61.4688C46.9082 61.4004 47.0723 61.3001 47.209 61.168C47.3503 61.0358 47.4551 60.8763 47.5234 60.6895L49.4785 60.8193C49.3828 61.2887 49.1823 61.6989 48.877 62.0498C48.5762 62.3962 48.1865 62.6673 47.708 62.8633C47.2295 63.0547 46.6758 63.1504 46.0469 63.1504ZM56.7998 57.5381L54.8652 57.6543C54.8151 57.4128 54.6807 57.2054 54.4619 57.0322C54.2432 56.8545 53.9492 56.7656 53.5801 56.7656C53.252 56.7656 52.9762 56.834 52.7529 56.9707C52.5342 57.1074 52.4248 57.2897 52.4248 57.5176C52.4248 57.6999 52.4954 57.8571 52.6367 57.9893C52.7826 58.1169 53.0309 58.2171 53.3818 58.29L54.7695 58.5635C55.5124 58.7139 56.0661 58.9577 56.4307 59.2949C56.7952 59.6322 56.9775 60.0765 56.9775 60.6279C56.9775 61.1338 56.8317 61.5758 56.54 61.9541C56.2484 62.3278 55.8473 62.6217 55.3369 62.8359C54.8265 63.0456 54.2409 63.1504 53.5801 63.1504C52.5684 63.1504 51.7617 62.9385 51.1602 62.5146C50.5632 62.0908 50.2145 61.5166 50.1143 60.792L52.1855 60.6826C52.2539 60.9925 52.4089 61.2272 52.6504 61.3867C52.8919 61.5462 53.2018 61.626 53.5801 61.626C53.9492 61.626 54.2477 61.5531 54.4756 61.4072C54.708 61.2614 54.8242 61.0768 54.8242 60.8535C54.8242 60.4753 54.4961 60.2201 53.8398 60.0879L52.5205 59.8145C51.7777 59.6641 51.224 59.4066 50.8594 59.042C50.4948 58.6774 50.3125 58.2103 50.3125 57.6406C50.3125 57.1484 50.4469 56.7246 50.7158 56.3691C50.9847 56.0137 51.3607 55.7402 51.8438 55.5488C52.3314 55.3574 52.901 55.2617 53.5527 55.2617C54.5189 55.2617 55.2777 55.4668 55.8291 55.877C56.3851 56.2826 56.7087 56.8363 56.7998 57.5381ZM64.709 55.3574V56.957H60.1084V55.3574H64.709ZM61.1543 53.5391H63.2666V60.6484C63.2666 60.9036 63.3236 61.0928 63.4375 61.2158C63.5514 61.3343 63.7337 61.3936 63.9844 61.3936C64.0664 61.3936 64.1576 61.3867 64.2578 61.373C64.3581 61.3594 64.4447 61.3434 64.5176 61.3252L64.8525 62.9111C64.6201 62.9795 64.3945 63.0296 64.1758 63.0615C63.9616 63.0934 63.7497 63.1094 63.54 63.1094C62.779 63.1094 62.1911 62.9202 61.7764 62.542C61.3617 62.1592 61.1543 61.6214 61.1543 60.9287V53.5391ZM66.9307 65.8574C66.6618 65.862 66.4089 65.8438 66.1719 65.8027C65.9395 65.7617 65.748 65.7093 65.5977 65.6455L66.0762 64.0664L66.1445 64.0801C66.5 64.1849 66.8031 64.2077 67.0537 64.1484C67.3089 64.0938 67.5026 63.8932 67.6348 63.5469L67.7578 63.2188L65.0234 55.3574H67.2451L68.8242 60.9697H68.9062L70.5059 55.3574H72.7412L69.7744 63.8271C69.6331 64.2373 69.4395 64.5951 69.1934 64.9004C68.9518 65.2057 68.6465 65.4404 68.2773 65.6045C67.9082 65.7731 67.4593 65.8574 66.9307 65.8574ZM73.3838 65.8574V55.3574H75.4619V56.6494H75.5576C75.6533 56.4398 75.79 56.2279 75.9678 56.0137C76.1455 55.7995 76.3779 55.6217 76.665 55.4805C76.9521 55.3346 77.3076 55.2617 77.7314 55.2617C78.292 55.2617 78.8047 55.4076 79.2695 55.6992C79.7389 55.9863 80.1149 56.4215 80.3975 57.0049C80.68 57.5882 80.8213 58.3174 80.8213 59.1924C80.8213 60.04 80.6846 60.7578 80.4111 61.3457C80.1377 61.929 79.7663 62.3711 79.2969 62.6719C78.832 62.9727 78.3079 63.123 77.7246 63.123C77.3145 63.123 76.9658 63.0547 76.6787 62.918C76.3916 62.7812 76.1569 62.6104 75.9746 62.4053C75.7969 62.1956 75.6579 61.986 75.5576 61.7764H75.4961V65.8574H73.3838ZM77.0547 61.4414C77.401 61.4414 77.6927 61.3457 77.9297 61.1543C78.1667 60.9629 78.3467 60.6986 78.4697 60.3613C78.5928 60.0195 78.6543 59.6276 78.6543 59.1855C78.6543 58.7435 78.5928 58.3561 78.4697 58.0234C78.3512 57.6862 78.1735 57.4219 77.9365 57.2305C77.6995 57.0391 77.4056 56.9434 77.0547 56.9434C76.7129 56.9434 76.4212 57.0368 76.1797 57.2236C75.9427 57.4059 75.7604 57.6657 75.6328 58.0029C75.5098 58.3356 75.4482 58.7298 75.4482 59.1855C75.4482 59.6367 75.512 60.0309 75.6396 60.3682C75.7673 60.7054 75.9495 60.9697 76.1865 61.1611C76.4281 61.348 76.7174 61.4414 77.0547 61.4414ZM85.2305 63.1504C84.4466 63.1504 83.7699 62.9909 83.2002 62.6719C82.6305 62.3529 82.193 61.8994 81.8877 61.3115C81.5869 60.7191 81.4365 60.0195 81.4365 59.2129C81.4365 58.429 81.5869 57.7409 81.8877 57.1484C82.193 56.556 82.6214 56.0934 83.1729 55.7607C83.7288 55.4281 84.3805 55.2617 85.1279 55.2617C85.6338 55.2617 86.1055 55.3438 86.543 55.5078C86.9805 55.6673 87.3633 55.9089 87.6914 56.2324C88.0195 56.5514 88.2747 56.9548 88.457 57.4424C88.6393 57.9255 88.7305 58.4928 88.7305 59.1445V59.7188H82.2773V58.4131H87.7051L86.7207 58.7549C86.7207 58.3675 86.6615 58.0303 86.543 57.7432C86.4245 57.4561 86.2467 57.235 86.0098 57.0801C85.7773 56.9206 85.488 56.8408 85.1416 56.8408C84.7952 56.8408 84.5013 56.9206 84.2598 57.0801C84.0228 57.2396 83.8405 57.4561 83.7129 57.7295C83.5853 58.0029 83.5215 58.3174 83.5215 58.6729V59.5957C83.5215 60.0104 83.5944 60.3659 83.7402 60.6621C83.8861 60.9538 84.0889 61.1794 84.3486 61.3389C84.613 61.4938 84.916 61.5713 85.2578 61.5713C85.4948 61.5713 85.709 61.5371 85.9004 61.4688C86.0918 61.4004 86.2559 61.3001 86.3926 61.168C86.5339 61.0358 86.6387 60.8763 86.707 60.6895L88.6621 60.8193C88.5664 61.2887 88.3659 61.6989 88.0605 62.0498C87.7598 62.3962 87.3701 62.6673 86.8916 62.8633C86.4131 63.0547 85.8594 63.1504 85.2305 63.1504ZM96.7422 52.8145V63H94.5957V54.8584H94.5342L92.21 56.3281V54.4141L94.7256 52.8145H96.7422ZM99.5312 61.7764C99.194 61.7764 98.9092 61.6624 98.6768 61.4346C98.4443 61.2067 98.3281 60.9242 98.3281 60.5869C98.3281 60.2497 98.4443 59.9671 98.6768 59.7393C98.9092 59.5114 99.194 59.3975 99.5312 59.3975C99.8685 59.3975 100.153 59.5114 100.386 59.7393C100.618 59.9671 100.734 60.2497 100.734 60.5869C100.734 60.9242 100.618 61.2067 100.386 61.4346C100.153 61.6624 99.8685 61.7764 99.5312 61.7764ZM99.5312 56.752C99.194 56.752 98.9092 56.638 98.6768 56.4102C98.4443 56.1823 98.3281 55.8997 98.3281 55.5625C98.3281 55.2253 98.4443 54.9427 98.6768 54.7148C98.9092 54.487 99.194 54.373 99.5312 54.373C99.8685 54.373 100.153 54.487 100.386 54.7148C100.618 54.9427 100.734 55.2253 100.734 55.5625C100.734 55.8997 100.618 56.1823 100.386 56.4102C100.153 56.638 99.8685 56.752 99.5312 56.752ZM111.398 52.8145H113.552V59.4248C113.552 60.1676 113.374 60.8193 113.019 61.3799C112.668 61.9359 112.175 62.3688 111.542 62.6787C110.909 62.9886 110.17 63.1436 109.327 63.1436C108.484 63.1436 107.746 62.9886 107.112 62.6787C106.479 62.3688 105.987 61.9359 105.636 61.3799C105.285 60.8193 105.109 60.1676 105.109 59.4248V52.8145H107.256V59.2471C107.256 59.6344 107.342 59.9808 107.516 60.2861C107.689 60.5869 107.93 60.8239 108.24 60.9971C108.55 61.1657 108.912 61.25 109.327 61.25C109.746 61.25 110.111 61.1657 110.421 60.9971C110.731 60.8239 110.97 60.5869 111.139 60.2861C111.312 59.9808 111.398 59.6344 111.398 59.2471V52.8145ZM118.255 66.0215C117.225 66.0215 116.418 65.8164 115.835 65.4062C115.252 65.0007 114.896 64.4948 114.769 63.8887L116.724 63.6289C116.783 63.7839 116.876 63.9274 117.004 64.0596C117.132 64.1917 117.302 64.2965 117.517 64.374C117.731 64.4561 117.993 64.4971 118.303 64.4971C118.763 64.4971 119.144 64.3854 119.444 64.1621C119.745 63.9434 119.896 63.5719 119.896 63.0479V61.6465H119.807C119.715 61.8561 119.576 62.0566 119.39 62.248C119.203 62.4395 118.964 62.5944 118.672 62.7129C118.38 62.8314 118.032 62.8906 117.626 62.8906C117.052 62.8906 116.53 62.7585 116.061 62.4941C115.596 62.2253 115.222 61.8151 114.939 61.2637C114.661 60.7122 114.522 60.015 114.522 59.1719C114.522 58.3014 114.664 57.5768 114.946 56.998C115.233 56.4193 115.612 55.9863 116.081 55.6992C116.55 55.4076 117.065 55.2617 117.626 55.2617C118.054 55.2617 118.412 55.3346 118.699 55.4805C118.991 55.6217 119.228 55.7995 119.41 56.0137C119.592 56.2279 119.729 56.4398 119.82 56.6494H119.902V55.3574H121.987V63.082C121.987 63.7292 121.828 64.2715 121.509 64.709C121.19 65.1465 120.75 65.4746 120.189 65.6934C119.629 65.9121 118.984 66.0215 118.255 66.0215ZM118.296 61.2979C118.806 61.2979 119.201 61.1087 119.479 60.7305C119.761 60.3522 119.902 59.8281 119.902 59.1582C119.902 58.7116 119.839 58.3242 119.711 57.9961C119.588 57.6634 119.408 57.4059 119.171 57.2236C118.934 57.0368 118.642 56.9434 118.296 56.9434C117.95 56.9434 117.656 57.0391 117.414 57.2305C117.177 57.4173 116.997 57.6771 116.874 58.0098C116.751 58.3424 116.689 58.7253 116.689 59.1582C116.689 59.5957 116.751 59.9762 116.874 60.2998C116.997 60.6188 117.177 60.8649 117.414 61.0381C117.656 61.2113 117.95 61.2979 118.296 61.2979ZM126.711 63.1504C125.927 63.1504 125.25 62.9909 124.681 62.6719C124.111 62.3529 123.674 61.8994 123.368 61.3115C123.067 60.7191 122.917 60.0195 122.917 59.2129C122.917 58.429 123.067 57.7409 123.368 57.1484C123.674 56.556 124.102 56.0934 124.653 55.7607C125.209 55.4281 125.861 55.2617 126.608 55.2617C127.114 55.2617 127.586 55.3438 128.023 55.5078C128.461 55.6673 128.844 55.9089 129.172 56.2324C129.5 56.5514 129.755 56.9548 129.938 57.4424C130.12 57.9255 130.211 58.4928 130.211 59.1445V59.7188H123.758V58.4131H129.186L128.201 58.7549C128.201 58.3675 128.142 58.0303 128.023 57.7432C127.905 57.4561 127.727 57.235 127.49 57.0801C127.258 56.9206 126.968 56.8408 126.622 56.8408C126.276 56.8408 125.982 56.9206 125.74 57.0801C125.503 57.2396 125.321 57.4561 125.193 57.7295C125.066 58.0029 125.002 58.3174 125.002 58.6729V59.5957C125.002 60.0104 125.075 60.3659 125.221 60.6621C125.367 60.9538 125.569 61.1794 125.829 61.3389C126.093 61.4938 126.396 61.5713 126.738 61.5713C126.975 61.5713 127.189 61.5371 127.381 61.4688C127.572 61.4004 127.736 61.3001 127.873 61.168C128.014 61.0358 128.119 60.8763 128.188 60.6895L130.143 60.8193C130.047 61.2887 129.846 61.6989 129.541 62.0498C129.24 62.3962 128.851 62.6673 128.372 62.8633C127.894 63.0547 127.34 63.1504 126.711 63.1504ZM131.12 63V55.3574H133.164V56.6973H133.246C133.387 56.2233 133.622 55.8656 133.95 55.624C134.278 55.3779 134.654 55.2549 135.078 55.2549C135.188 55.2549 135.301 55.2617 135.42 55.2754C135.543 55.2845 135.652 55.3027 135.748 55.3301V57.2031C135.648 57.1712 135.509 57.1462 135.331 57.1279C135.158 57.1051 134.996 57.0938 134.846 57.0938C134.54 57.0938 134.265 57.1621 134.019 57.2988C133.772 57.431 133.579 57.6178 133.438 57.8594C133.301 58.0964 133.232 58.3698 133.232 58.6797V63H131.12Z" fill="#1E1E1E" fill-opacity="0.7"/>
<path d="M0.65625 96.8145H3.31543L6.11816 103.657H6.23438L9.04395 96.8145H11.71V107H9.60449V100.369H9.52246L6.87695 106.952H5.45508L2.83008 100.355H2.74805V107H0.65625V96.8145ZM17.8896 103.753V99.3574H20.002V107H17.9717V105.612H17.8896C17.7165 106.054 17.4316 106.414 17.0352 106.692C16.6387 106.966 16.1533 107.1 15.5791 107.096C15.0687 107.096 14.6175 106.982 14.2256 106.754C13.8382 106.521 13.5352 106.191 13.3164 105.763C13.1022 105.334 12.9951 104.822 12.9951 104.225V99.3574H15.1074V103.855C15.1074 104.302 15.2282 104.658 15.4697 104.922C15.7113 105.182 16.0326 105.309 16.4336 105.305C16.6888 105.305 16.9258 105.248 17.1445 105.134C17.3633 105.015 17.541 104.84 17.6777 104.607C17.819 104.375 17.8896 104.09 17.8896 103.753ZM23.3652 96.8145V107H21.2529V96.8145H23.3652ZM28.6699 99.3574V100.957H24.0693V99.3574H28.6699ZM25.1152 97.5391H27.2275V104.648C27.2275 104.904 27.2845 105.093 27.3984 105.216C27.5124 105.334 27.6947 105.394 27.9453 105.394C28.0273 105.394 28.1185 105.387 28.2188 105.373C28.319 105.359 28.4056 105.343 28.4785 105.325L28.8135 106.911C28.5811 106.979 28.3555 107.03 28.1367 107.062C27.9225 107.093 27.7106 107.109 27.501 107.109C26.7399 107.109 26.152 106.92 25.7373 106.542C25.3226 106.159 25.1152 105.621 25.1152 104.929V97.5391ZM29.5928 107V99.3574H31.7051V107H29.5928ZM30.6455 98.3799C30.3311 98.3799 30.0622 98.2751 29.8389 98.0654C29.6156 97.8558 29.5039 97.6029 29.5039 97.3066C29.5039 97.0104 29.6156 96.7598 29.8389 96.5547C30.0622 96.3451 30.3311 96.2402 30.6455 96.2402C30.9645 96.2402 31.2357 96.3451 31.459 96.5547C31.6823 96.7598 31.7939 97.0104 31.7939 97.3066C31.7939 97.6029 31.6823 97.8558 31.459 98.0654C31.2357 98.2751 30.9645 98.3799 30.6455 98.3799ZM32.9561 109.857V99.3574H35.0342V100.649H35.1299C35.2256 100.44 35.3623 100.228 35.54 100.014C35.7178 99.7995 35.9502 99.6217 36.2373 99.4805C36.5244 99.3346 36.8799 99.2617 37.3037 99.2617C37.8643 99.2617 38.377 99.4076 38.8418 99.6992C39.3112 99.9863 39.6872 100.422 39.9697 101.005C40.2523 101.588 40.3936 102.317 40.3936 103.192C40.3936 104.04 40.2568 104.758 39.9834 105.346C39.71 105.929 39.3385 106.371 38.8691 106.672C38.4043 106.973 37.8802 107.123 37.2969 107.123C36.8867 107.123 36.5381 107.055 36.251 106.918C35.9639 106.781 35.7292 106.61 35.5469 106.405C35.3691 106.196 35.2301 105.986 35.1299 105.776H35.0684V109.857H32.9561ZM36.627 105.441C36.9733 105.441 37.265 105.346 37.502 105.154C37.7389 104.963 37.9189 104.699 38.042 104.361C38.165 104.02 38.2266 103.628 38.2266 103.186C38.2266 102.743 38.165 102.356 38.042 102.023C37.9235 101.686 37.7458 101.422 37.5088 101.23C37.2718 101.039 36.9779 100.943 36.627 100.943C36.2852 100.943 35.9935 101.037 35.752 101.224C35.515 101.406 35.3327 101.666 35.2051 102.003C35.082 102.336 35.0205 102.73 35.0205 103.186C35.0205 103.637 35.0843 104.031 35.2119 104.368C35.3395 104.705 35.5218 104.97 35.7588 105.161C36.0003 105.348 36.2897 105.441 36.627 105.441ZM44.8027 107.15C44.0189 107.15 43.3421 106.991 42.7725 106.672C42.2028 106.353 41.7653 105.899 41.46 105.312C41.1592 104.719 41.0088 104.02 41.0088 103.213C41.0088 102.429 41.1592 101.741 41.46 101.148C41.7653 100.556 42.1937 100.093 42.7451 99.7607C43.3011 99.4281 43.9528 99.2617 44.7002 99.2617C45.2061 99.2617 45.6777 99.3438 46.1152 99.5078C46.5527 99.6673 46.9355 99.9089 47.2637 100.232C47.5918 100.551 47.847 100.955 48.0293 101.442C48.2116 101.925 48.3027 102.493 48.3027 103.145V103.719H41.8496V102.413H47.2773L46.293 102.755C46.293 102.368 46.2337 102.03 46.1152 101.743C45.9967 101.456 45.819 101.235 45.582 101.08C45.3496 100.921 45.0602 100.841 44.7139 100.841C44.3675 100.841 44.0736 100.921 43.832 101.08C43.5951 101.24 43.4128 101.456 43.2852 101.729C43.1576 102.003 43.0938 102.317 43.0938 102.673V103.596C43.0938 104.01 43.1667 104.366 43.3125 104.662C43.4583 104.954 43.6611 105.179 43.9209 105.339C44.1852 105.494 44.4883 105.571 44.8301 105.571C45.0671 105.571 45.2812 105.537 45.4727 105.469C45.6641 105.4 45.8281 105.3 45.9648 105.168C46.1061 105.036 46.2109 104.876 46.2793 104.689L48.2344 104.819C48.1387 105.289 47.9382 105.699 47.6328 106.05C47.332 106.396 46.9424 106.667 46.4639 106.863C45.9854 107.055 45.4316 107.15 44.8027 107.15ZM51.3242 96.8145V107H49.2119V96.8145H51.3242ZM61.708 101.538L59.7734 101.654C59.7233 101.413 59.5889 101.205 59.3701 101.032C59.1514 100.854 58.8574 100.766 58.4883 100.766C58.1602 100.766 57.8844 100.834 57.6611 100.971C57.4424 101.107 57.333 101.29 57.333 101.518C57.333 101.7 57.4036 101.857 57.5449 101.989C57.6908 102.117 57.9391 102.217 58.29 102.29L59.6777 102.563C60.4206 102.714 60.9743 102.958 61.3389 103.295C61.7035 103.632 61.8857 104.076 61.8857 104.628C61.8857 105.134 61.7399 105.576 61.4482 105.954C61.1566 106.328 60.7555 106.622 60.2451 106.836C59.7347 107.046 59.1491 107.15 58.4883 107.15C57.4766 107.15 56.6699 106.938 56.0684 106.515C55.4714 106.091 55.1227 105.517 55.0225 104.792L57.0938 104.683C57.1621 104.993 57.3171 105.227 57.5586 105.387C57.8001 105.546 58.11 105.626 58.4883 105.626C58.8574 105.626 59.1559 105.553 59.3838 105.407C59.6162 105.261 59.7324 105.077 59.7324 104.854C59.7324 104.475 59.4043 104.22 58.748 104.088L57.4287 103.814C56.6859 103.664 56.1322 103.407 55.7676 103.042C55.403 102.677 55.2207 102.21 55.2207 101.641C55.2207 101.148 55.3551 100.725 55.624 100.369C55.8929 100.014 56.2689 99.7402 56.752 99.5488C57.2396 99.3574 57.8092 99.2617 58.4609 99.2617C59.4271 99.2617 60.1859 99.4668 60.7373 99.877C61.2933 100.283 61.6169 100.836 61.708 101.538ZM64.6885 104.799L64.6953 102.263H65.0029L67.4434 99.3574H69.877L66.5957 103.206H66.083L64.6885 104.799ZM62.7744 107V96.8145H64.8867V107H62.7744ZM67.5391 107L65.2969 103.678L66.7051 102.174L70.0205 107H67.5391ZM72.5703 96.8145V107H70.458V96.8145H72.5703ZM77.3008 107.15C76.5169 107.15 75.8402 106.991 75.2705 106.672C74.7008 106.353 74.2633 105.899 73.958 105.312C73.6572 104.719 73.5068 104.02 73.5068 103.213C73.5068 102.429 73.6572 101.741 73.958 101.148C74.2633 100.556 74.6917 100.093 75.2432 99.7607C75.7992 99.4281 76.4508 99.2617 77.1982 99.2617C77.7041 99.2617 78.1758 99.3438 78.6133 99.5078C79.0508 99.6673 79.4336 99.9089 79.7617 100.232C80.0898 100.551 80.3451 100.955 80.5273 101.442C80.7096 101.925 80.8008 102.493 80.8008 103.145V103.719H74.3477V102.413H79.7754L78.791 102.755C78.791 102.368 78.7318 102.03 78.6133 101.743C78.4948 101.456 78.3171 101.235 78.0801 101.08C77.8477 100.921 77.5583 100.841 77.2119 100.841C76.8656 100.841 76.5716 100.921 76.3301 101.08C76.0931 101.24 75.9108 101.456 75.7832 101.729C75.6556 102.003 75.5918 102.317 75.5918 102.673V103.596C75.5918 104.01 75.6647 104.366 75.8105 104.662C75.9564 104.954 76.1592 105.179 76.4189 105.339C76.6833 105.494 76.9863 105.571 77.3281 105.571C77.5651 105.571 77.7793 105.537 77.9707 105.469C78.1621 105.4 78.3262 105.3 78.4629 105.168C78.6042 105.036 78.709 104.876 78.7773 104.689L80.7324 104.819C80.6367 105.289 80.4362 105.699 80.1309 106.05C79.8301 106.396 79.4404 106.667 78.9619 106.863C78.4834 107.055 77.9297 107.15 77.3008 107.15ZM81.71 107V99.3574H83.7539V100.697H83.8359C83.9772 100.223 84.2119 99.8656 84.54 99.624C84.8682 99.3779 85.2441 99.2549 85.668 99.2549C85.7773 99.2549 85.8913 99.2617 86.0098 99.2754C86.1328 99.2845 86.2422 99.3027 86.3379 99.3301V101.203C86.2376 101.171 86.0986 101.146 85.9209 101.128C85.7477 101.105 85.5859 101.094 85.4355 101.094C85.1302 101.094 84.8545 101.162 84.6084 101.299C84.3623 101.431 84.1686 101.618 84.0273 101.859C83.8906 102.096 83.8223 102.37 83.8223 102.68V107H81.71ZM90.0566 107.15C89.2865 107.15 88.6188 106.986 88.0537 106.658C87.4932 106.326 87.0602 105.865 86.7549 105.277C86.4541 104.685 86.3037 103.997 86.3037 103.213C86.3037 102.42 86.4541 101.729 86.7549 101.142C87.0602 100.549 87.4932 100.089 88.0537 99.7607C88.6188 99.4281 89.2865 99.2617 90.0566 99.2617C90.8314 99.2617 91.499 99.4281 92.0596 99.7607C92.6247 100.089 93.0576 100.549 93.3584 101.142C93.6637 101.729 93.8164 102.42 93.8164 103.213C93.8164 103.997 93.6637 104.685 93.3584 105.277C93.0576 105.865 92.6247 106.326 92.0596 106.658C91.499 106.986 90.8314 107.15 90.0566 107.15ZM90.0703 105.496C90.4212 105.496 90.7152 105.398 90.9521 105.202C91.1891 105.002 91.3669 104.728 91.4854 104.382C91.6084 104.035 91.6699 103.641 91.6699 103.199C91.6699 102.753 91.6084 102.358 91.4854 102.017C91.3669 101.675 91.1891 101.406 90.9521 101.21C90.7152 101.014 90.4212 100.916 90.0703 100.916C89.7148 100.916 89.4163 101.014 89.1748 101.21C88.9378 101.406 88.7578 101.675 88.6348 102.017C88.5163 102.358 88.457 102.753 88.457 103.199C88.457 103.641 88.5163 104.035 88.6348 104.382C88.7578 104.728 88.9378 105.002 89.1748 105.202C89.4163 105.398 89.7148 105.496 90.0703 105.496ZM101.097 101.538L99.1621 101.654C99.112 101.413 98.9775 101.205 98.7588 101.032C98.54 100.854 98.2461 100.766 97.877 100.766C97.5488 100.766 97.2731 100.834 97.0498 100.971C96.8311 101.107 96.7217 101.29 96.7217 101.518C96.7217 101.7 96.7923 101.857 96.9336 101.989C97.0794 102.117 97.3278 102.217 97.6787 102.29L99.0664 102.563C99.8092 102.714 100.363 102.958 100.728 103.295C101.092 103.632 101.274 104.076 101.274 104.628C101.274 105.134 101.129 105.576 100.837 105.954C100.545 106.328 100.144 106.622 99.6338 106.836C99.1234 107.046 98.5378 107.15 97.877 107.15C96.8652 107.15 96.0586 106.938 95.457 106.515C94.86 106.091 94.5114 105.517 94.4111 104.792L96.4824 104.683C96.5508 104.993 96.7057 105.227 96.9473 105.387C97.1888 105.546 97.4987 105.626 97.877 105.626C98.2461 105.626 98.5446 105.553 98.7725 105.407C99.0049 105.261 99.1211 105.077 99.1211 104.854C99.1211 104.475 98.793 104.22 98.1367 104.088L96.8174 103.814C96.0745 103.664 95.5208 103.407 95.1562 103.042C94.7917 102.677 94.6094 102.21 94.6094 101.641C94.6094 101.148 94.7438 100.725 95.0127 100.369C95.2816 100.014 95.6576 99.7402 96.1406 99.5488C96.6283 99.3574 97.1979 99.2617 97.8496 99.2617C98.8158 99.2617 99.5745 99.4668 100.126 99.877C100.682 100.283 101.006 100.836 101.097 101.538ZM105.643 107.15C104.859 107.15 104.182 106.991 103.612 106.672C103.043 106.353 102.605 105.899 102.3 105.312C101.999 104.719 101.849 104.02 101.849 103.213C101.849 102.429 101.999 101.741 102.3 101.148C102.605 100.556 103.034 100.093 103.585 99.7607C104.141 99.4281 104.793 99.2617 105.54 99.2617C106.046 99.2617 106.518 99.3438 106.955 99.5078C107.393 99.6673 107.775 99.9089 108.104 100.232C108.432 100.551 108.687 100.955 108.869 101.442C109.051 101.925 109.143 102.493 109.143 103.145V103.719H102.689V102.413H108.117L107.133 102.755C107.133 102.368 107.074 102.03 106.955 101.743C106.837 101.456 106.659 101.235 106.422 101.08C106.189 100.921 105.9 100.841 105.554 100.841C105.207 100.841 104.913 100.921 104.672 101.08C104.435 101.24 104.253 101.456 104.125 101.729C103.997 102.003 103.934 102.317 103.934 102.673V103.596C103.934 104.01 104.007 104.366 104.152 104.662C104.298 104.954 104.501 105.179 104.761 105.339C105.025 105.494 105.328 105.571 105.67 105.571C105.907 105.571 106.121 105.537 106.312 105.469C106.504 105.4 106.668 105.3 106.805 105.168C106.946 105.036 107.051 104.876 107.119 104.689L109.074 104.819C108.979 105.289 108.778 105.699 108.473 106.05C108.172 106.396 107.782 106.667 107.304 106.863C106.825 107.055 106.271 107.15 105.643 107.15ZM111.562 107.13C111.225 107.13 110.94 107.016 110.708 106.788C110.476 106.56 110.359 106.278 110.359 105.94C110.359 105.603 110.476 105.321 110.708 105.093C110.94 104.865 111.225 104.751 111.562 104.751C111.9 104.751 112.185 104.865 112.417 105.093C112.649 105.321 112.766 105.603 112.766 105.94C112.766 106.278 112.649 106.56 112.417 106.788C112.185 107.016 111.9 107.13 111.562 107.13ZM111.562 102.105C111.225 102.105 110.94 101.992 110.708 101.764C110.476 101.536 110.359 101.253 110.359 100.916C110.359 100.579 110.476 100.296 110.708 100.068C110.94 99.8405 111.225 99.7266 111.562 99.7266C111.9 99.7266 112.185 99.8405 112.417 100.068C112.649 100.296 112.766 100.579 112.766 100.916C112.766 101.253 112.649 101.536 112.417 101.764C112.185 101.992 111.9 102.105 111.562 102.105ZM117.079 107V105.455L120.702 102.092C121.012 101.796 121.272 101.529 121.481 101.292C121.691 101.05 121.851 100.816 121.96 100.588C122.069 100.355 122.124 100.105 122.124 99.8359C122.124 99.5352 122.056 99.2777 121.919 99.0635C121.782 98.8493 121.598 98.6829 121.365 98.5645C121.133 98.446 120.866 98.3867 120.565 98.3867C120.256 98.3867 119.984 98.4505 119.752 98.5781C119.52 98.7012 119.34 98.8812 119.212 99.1182C119.089 99.3506 119.027 99.6309 119.027 99.959H116.977C116.977 99.2891 117.127 98.7103 117.428 98.2227C117.733 97.7305 118.157 97.3499 118.699 97.0811C119.246 96.8122 119.875 96.6777 120.586 96.6777C121.311 96.6777 121.944 96.8076 122.486 97.0674C123.029 97.3226 123.45 97.6781 123.751 98.1338C124.052 98.585 124.202 99.1068 124.202 99.6992C124.202 100.082 124.127 100.46 123.977 100.834C123.826 101.203 123.56 101.618 123.177 102.078C122.794 102.534 122.252 103.078 121.55 103.712L120.06 105.168V105.243H124.339V107H117.079ZM130.437 107.144C129.953 107.144 129.518 107.059 129.131 106.891C128.748 106.717 128.447 106.462 128.229 106.125C128.01 105.788 127.9 105.368 127.9 104.867C127.9 104.439 127.978 104.083 128.133 103.801C128.288 103.514 128.5 103.281 128.769 103.104C129.037 102.926 129.343 102.791 129.685 102.7C130.026 102.609 130.389 102.545 130.771 102.509C131.214 102.468 131.569 102.427 131.838 102.386C132.107 102.345 132.303 102.283 132.426 102.201C132.553 102.115 132.617 101.992 132.617 101.832V101.798C132.617 101.483 132.517 101.24 132.316 101.066C132.12 100.893 131.842 100.807 131.482 100.807C131.104 100.807 130.801 100.891 130.573 101.06C130.35 101.224 130.202 101.433 130.129 101.688L128.167 101.531C128.267 101.066 128.463 100.665 128.755 100.328C129.047 99.9863 129.423 99.7243 129.883 99.542C130.348 99.3551 130.885 99.2617 131.496 99.2617C131.92 99.2617 132.326 99.3118 132.713 99.4121C133.1 99.5124 133.444 99.6673 133.745 99.877C134.05 100.082 134.292 100.349 134.47 100.677C134.647 101.005 134.736 101.395 134.736 101.846V107H132.72V105.934H132.665C132.542 106.175 132.378 106.387 132.173 106.569C131.968 106.747 131.722 106.888 131.435 106.993C131.147 107.093 130.815 107.144 130.437 107.144ZM131.045 105.681C131.355 105.681 131.628 105.619 131.865 105.496C132.107 105.368 132.294 105.2 132.426 104.99C132.562 104.776 132.631 104.537 132.631 104.272V103.459C132.567 103.5 132.476 103.539 132.357 103.575C132.243 103.612 132.116 103.644 131.975 103.671C131.833 103.698 131.692 103.723 131.551 103.746C131.41 103.764 131.282 103.783 131.168 103.801C130.917 103.837 130.699 103.896 130.512 103.979C130.325 104.056 130.179 104.163 130.074 104.3C129.974 104.432 129.924 104.598 129.924 104.799C129.924 105.086 130.029 105.305 130.238 105.455C130.448 105.605 130.717 105.681 131.045 105.681ZM131.571 98.5439C131.257 98.5439 130.97 98.471 130.71 98.3252C130.455 98.1794 130.25 97.9834 130.095 97.7373C129.944 97.4912 129.869 97.2155 129.869 96.9102C129.869 96.6094 129.944 96.3337 130.095 96.083C130.25 95.8324 130.455 95.6318 130.71 95.4814C130.97 95.3311 131.257 95.2581 131.571 95.2627C131.886 95.2581 132.171 95.3311 132.426 95.4814C132.681 95.6318 132.884 95.8324 133.034 96.083C133.189 96.3337 133.264 96.6094 133.26 96.9102C133.264 97.2155 133.189 97.4912 133.034 97.7373C132.884 97.9834 132.681 98.1794 132.426 98.3252C132.171 98.471 131.886 98.5439 131.571 98.5439ZM131.571 97.6621C131.79 97.6576 131.972 97.5801 132.118 97.4297C132.269 97.2793 132.344 97.1061 132.344 96.9102C132.344 96.7096 132.269 96.5342 132.118 96.3838C131.972 96.2288 131.79 96.1536 131.571 96.1582C131.348 96.1582 131.161 96.2334 131.011 96.3838C130.865 96.5342 130.792 96.7096 130.792 96.9102C130.792 97.1061 130.865 97.2816 131.011 97.4365C131.161 97.5869 131.348 97.6621 131.571 97.6621ZM135.974 107V99.3574H138.018V100.697H138.1C138.241 100.223 138.476 99.8656 138.804 99.624C139.132 99.3779 139.508 99.2549 139.932 99.2549C140.041 99.2549 140.155 99.2617 140.273 99.2754C140.396 99.2845 140.506 99.3027 140.602 99.3301V101.203C140.501 101.171 140.362 101.146 140.185 101.128C140.011 101.105 139.85 101.094 139.699 101.094C139.394 101.094 139.118 101.162 138.872 101.299C138.626 101.431 138.432 101.618 138.291 101.859C138.154 102.096 138.086 102.37 138.086 102.68V107H135.974Z" fill="#1E1E1E" fill-opacity="0.7"/>
<path d="M0.65625 151V140.814H2.80273V149.223H7.1709V151H0.65625ZM11.5938 151.15C10.8099 151.15 10.1331 150.991 9.56348 150.672C8.99382 150.353 8.55632 149.899 8.25098 149.312C7.9502 148.719 7.7998 148.02 7.7998 147.213C7.7998 146.429 7.9502 145.741 8.25098 145.148C8.55632 144.556 8.9847 144.093 9.53613 143.761C10.0921 143.428 10.7438 143.262 11.4912 143.262C11.9971 143.262 12.4688 143.344 12.9062 143.508C13.3438 143.667 13.7266 143.909 14.0547 144.232C14.3828 144.551 14.638 144.955 14.8203 145.442C15.0026 145.925 15.0938 146.493 15.0938 147.145V147.719H8.64062V146.413H14.0684L13.084 146.755C13.084 146.368 13.0247 146.03 12.9062 145.743C12.7878 145.456 12.61 145.235 12.373 145.08C12.1406 144.921 11.8512 144.841 11.5049 144.841C11.1585 144.841 10.8646 144.921 10.623 145.08C10.3861 145.24 10.2038 145.456 10.0762 145.729C9.94857 146.003 9.88477 146.317 9.88477 146.673V147.596C9.88477 148.01 9.95768 148.366 10.1035 148.662C10.2493 148.954 10.4521 149.179 10.7119 149.339C10.9762 149.494 11.2793 149.571 11.6211 149.571C11.8581 149.571 12.0723 149.537 12.2637 149.469C12.4551 149.4 12.6191 149.3 12.7559 149.168C12.8971 149.036 13.002 148.876 13.0703 148.689L15.0254 148.819C14.9297 149.289 14.7292 149.699 14.4238 150.05C14.123 150.396 13.7334 150.667 13.2549 150.863C12.7764 151.055 12.2227 151.15 11.5938 151.15ZM18.792 151.123C18.2087 151.123 17.6823 150.973 17.2129 150.672C16.7435 150.371 16.3721 149.929 16.0986 149.346C15.8252 148.758 15.6885 148.04 15.6885 147.192C15.6885 146.317 15.8298 145.588 16.1123 145.005C16.3949 144.422 16.7708 143.986 17.2402 143.699C17.7096 143.408 18.2223 143.262 18.7783 143.262C19.2067 143.262 19.5645 143.335 19.8516 143.48C20.1387 143.622 20.3711 143.799 20.5488 144.014C20.7266 144.228 20.861 144.44 20.9521 144.649H21.0137V140.814H23.1328V151H21.0479V149.776H20.9521C20.8564 149.986 20.7174 150.196 20.5352 150.405C20.3529 150.61 20.1182 150.781 19.8311 150.918C19.5485 151.055 19.2021 151.123 18.792 151.123ZM19.4551 149.441C19.7969 149.441 20.0863 149.348 20.3232 149.161C20.5648 148.97 20.7471 148.705 20.8701 148.368C20.9977 148.031 21.0615 147.637 21.0615 147.186C21.0615 146.73 21 146.336 20.877 146.003C20.7539 145.666 20.5716 145.406 20.3301 145.224C20.0885 145.037 19.7969 144.943 19.4551 144.943C19.1087 144.943 18.8171 145.039 18.5801 145.23C18.3431 145.422 18.1631 145.686 18.04 146.023C17.917 146.356 17.8555 146.743 17.8555 147.186C17.8555 147.628 17.917 148.02 18.04 148.361C18.1631 148.699 18.3431 148.963 18.5801 149.154C18.8216 149.346 19.1133 149.441 19.4551 149.441ZM27.1592 151.123C26.5758 151.123 26.0495 150.973 25.5801 150.672C25.1107 150.371 24.7393 149.929 24.4658 149.346C24.1924 148.758 24.0557 148.04 24.0557 147.192C24.0557 146.317 24.1969 145.588 24.4795 145.005C24.762 144.422 25.138 143.986 25.6074 143.699C26.0768 143.408 26.5895 143.262 27.1455 143.262C27.5739 143.262 27.9316 143.335 28.2188 143.48C28.5059 143.622 28.7383 143.799 28.916 144.014C29.0938 144.228 29.2282 144.44 29.3193 144.649H29.3809V140.814H31.5V151H29.415V149.776H29.3193C29.2236 149.986 29.0846 150.196 28.9023 150.405C28.7201 150.61 28.4854 150.781 28.1982 150.918C27.9157 151.055 27.5693 151.123 27.1592 151.123ZM27.8223 149.441C28.1641 149.441 28.4535 149.348 28.6904 149.161C28.932 148.97 29.1143 148.705 29.2373 148.368C29.3649 148.031 29.4287 147.637 29.4287 147.186C29.4287 146.73 29.3672 146.336 29.2441 146.003C29.1211 145.666 28.9388 145.406 28.6973 145.224C28.4557 145.037 28.1641 144.943 27.8223 144.943C27.4759 144.943 27.1842 145.039 26.9473 145.23C26.7103 145.422 26.5303 145.686 26.4072 146.023C26.2842 146.356 26.2227 146.743 26.2227 147.186C26.2227 147.628 26.2842 148.02 26.4072 148.361C26.5303 148.699 26.7103 148.963 26.9473 149.154C27.1888 149.346 27.4805 149.441 27.8223 149.441ZM36.2168 151.15C35.4329 151.15 34.7562 150.991 34.1865 150.672C33.6169 150.353 33.1794 149.899 32.874 149.312C32.5732 148.719 32.4229 148.02 32.4229 147.213C32.4229 146.429 32.5732 145.741 32.874 145.148C33.1794 144.556 33.6077 144.093 34.1592 143.761C34.7152 143.428 35.3669 143.262 36.1143 143.262C36.6201 143.262 37.0918 143.344 37.5293 143.508C37.9668 143.667 38.3496 143.909 38.6777 144.232C39.0059 144.551 39.2611 144.955 39.4434 145.442C39.6257 145.925 39.7168 146.493 39.7168 147.145V147.719H33.2637V146.413H38.6914L37.707 146.755C37.707 146.368 37.6478 146.03 37.5293 145.743C37.4108 145.456 37.2331 145.235 36.9961 145.08C36.7637 144.921 36.4743 144.841 36.1279 144.841C35.7816 144.841 35.4876 144.921 35.2461 145.08C35.0091 145.24 34.8268 145.456 34.6992 145.729C34.5716 146.003 34.5078 146.317 34.5078 146.673V147.596C34.5078 148.01 34.5807 148.366 34.7266 148.662C34.8724 148.954 35.0752 149.179 35.335 149.339C35.5993 149.494 35.9023 149.571 36.2441 149.571C36.4811 149.571 36.6953 149.537 36.8867 149.469C37.0781 149.4 37.2422 149.3 37.3789 149.168C37.5202 149.036 37.625 148.876 37.6934 148.689L39.6484 148.819C39.5527 149.289 39.3522 149.699 39.0469 150.05C38.7461 150.396 38.3564 150.667 37.8779 150.863C37.3994 151.055 36.8457 151.15 36.2168 151.15ZM44.0439 154.021C43.014 154.021 42.2074 153.816 41.624 153.406C41.0407 153.001 40.6852 152.495 40.5576 151.889L42.5127 151.629C42.5719 151.784 42.6654 151.927 42.793 152.06C42.9206 152.192 43.0915 152.297 43.3057 152.374C43.5199 152.456 43.7819 152.497 44.0918 152.497C44.5521 152.497 44.9326 152.385 45.2334 152.162C45.5342 151.943 45.6846 151.572 45.6846 151.048V149.646H45.5957C45.5046 149.856 45.3656 150.057 45.1787 150.248C44.9919 150.439 44.7526 150.594 44.4609 150.713C44.1693 150.831 43.8206 150.891 43.415 150.891C42.8408 150.891 42.319 150.758 41.8496 150.494C41.3848 150.225 41.0111 149.815 40.7285 149.264C40.4505 148.712 40.3115 148.015 40.3115 147.172C40.3115 146.301 40.4528 145.577 40.7354 144.998C41.0225 144.419 41.4007 143.986 41.8701 143.699C42.3395 143.408 42.8545 143.262 43.415 143.262C43.8434 143.262 44.2012 143.335 44.4883 143.48C44.7799 143.622 45.0169 143.799 45.1992 144.014C45.3815 144.228 45.5182 144.44 45.6094 144.649H45.6914V143.357H47.7764V151.082C47.7764 151.729 47.6169 152.271 47.2979 152.709C46.9788 153.146 46.5391 153.475 45.9785 153.693C45.418 153.912 44.7731 154.021 44.0439 154.021ZM44.085 149.298C44.5954 149.298 44.9896 149.109 45.2676 148.73C45.5501 148.352 45.6914 147.828 45.6914 147.158C45.6914 146.712 45.6276 146.324 45.5 145.996C45.377 145.663 45.1969 145.406 44.96 145.224C44.723 145.037 44.4313 144.943 44.085 144.943C43.7386 144.943 43.4447 145.039 43.2031 145.23C42.9661 145.417 42.7861 145.677 42.6631 146.01C42.54 146.342 42.4785 146.725 42.4785 147.158C42.4785 147.596 42.54 147.976 42.6631 148.3C42.7861 148.619 42.9661 148.865 43.2031 149.038C43.4447 149.211 43.7386 149.298 44.085 149.298ZM49.0205 151V143.357H51.1328V151H49.0205ZM50.0732 142.38C49.7588 142.38 49.4899 142.275 49.2666 142.065C49.0433 141.856 48.9316 141.603 48.9316 141.307C48.9316 141.01 49.0433 140.76 49.2666 140.555C49.4899 140.345 49.7588 140.24 50.0732 140.24C50.3923 140.24 50.6634 140.345 50.8867 140.555C51.11 140.76 51.2217 141.01 51.2217 141.307C51.2217 141.603 51.11 141.856 50.8867 142.065C50.6634 142.275 50.3923 142.38 50.0732 142.38ZM55.8018 154.021C54.7718 154.021 53.9652 153.816 53.3818 153.406C52.7985 153.001 52.443 152.495 52.3154 151.889L54.2705 151.629C54.3298 151.784 54.4232 151.927 54.5508 152.06C54.6784 152.192 54.8493 152.297 55.0635 152.374C55.2777 152.456 55.5397 152.497 55.8496 152.497C56.3099 152.497 56.6904 152.385 56.9912 152.162C57.292 151.943 57.4424 151.572 57.4424 151.048V149.646H57.3535C57.2624 149.856 57.1234 150.057 56.9365 150.248C56.7497 150.439 56.5104 150.594 56.2188 150.713C55.9271 150.831 55.5785 150.891 55.1729 150.891C54.5986 150.891 54.0768 150.758 53.6074 150.494C53.1426 150.225 52.7689 149.815 52.4863 149.264C52.2083 148.712 52.0693 148.015 52.0693 147.172C52.0693 146.301 52.2106 145.577 52.4932 144.998C52.7803 144.419 53.1585 143.986 53.6279 143.699C54.0973 143.408 54.6123 143.262 55.1729 143.262C55.6012 143.262 55.959 143.335 56.2461 143.48C56.5378 143.622 56.7747 143.799 56.957 144.014C57.1393 144.228 57.276 144.44 57.3672 144.649H57.4492V143.357H59.5342V151.082C59.5342 151.729 59.3747 152.271 59.0557 152.709C58.7367 153.146 58.2969 153.475 57.7363 153.693C57.1758 153.912 56.5309 154.021 55.8018 154.021ZM55.8428 149.298C56.3532 149.298 56.7474 149.109 57.0254 148.73C57.3079 148.352 57.4492 147.828 57.4492 147.158C57.4492 146.712 57.3854 146.324 57.2578 145.996C57.1348 145.663 56.9548 145.406 56.7178 145.224C56.4808 145.037 56.1891 144.943 55.8428 144.943C55.4964 144.943 55.2025 145.039 54.9609 145.23C54.724 145.417 54.5439 145.677 54.4209 146.01C54.2979 146.342 54.2363 146.725 54.2363 147.158C54.2363 147.596 54.2979 147.976 54.4209 148.3C54.5439 148.619 54.724 148.865 54.9609 149.038C55.2025 149.211 55.4964 149.298 55.8428 149.298ZM64.832 143.357V144.957H60.2314V143.357H64.832ZM61.2773 141.539H63.3896V148.648C63.3896 148.904 63.4466 149.093 63.5605 149.216C63.6745 149.334 63.8568 149.394 64.1074 149.394C64.1895 149.394 64.2806 149.387 64.3809 149.373C64.4811 149.359 64.5677 149.343 64.6406 149.325L64.9756 150.911C64.7432 150.979 64.5176 151.03 64.2988 151.062C64.0846 151.093 63.8727 151.109 63.6631 151.109C62.902 151.109 62.3141 150.92 61.8994 150.542C61.4847 150.159 61.2773 149.621 61.2773 148.929V141.539ZM67.2656 151.13C66.9284 151.13 66.6436 151.016 66.4111 150.788C66.1787 150.56 66.0625 150.278 66.0625 149.94C66.0625 149.603 66.1787 149.321 66.4111 149.093C66.6436 148.865 66.9284 148.751 67.2656 148.751C67.6029 148.751 67.8877 148.865 68.1201 149.093C68.3525 149.321 68.4688 149.603 68.4688 149.94C68.4688 150.278 68.3525 150.56 68.1201 150.788C67.8877 151.016 67.6029 151.13 67.2656 151.13ZM67.2656 146.105C66.9284 146.105 66.6436 145.992 66.4111 145.764C66.1787 145.536 66.0625 145.253 66.0625 144.916C66.0625 144.579 66.1787 144.296 66.4111 144.068C66.6436 143.84 66.9284 143.727 67.2656 143.727C67.6029 143.727 67.8877 143.84 68.1201 144.068C68.3525 144.296 68.4688 144.579 68.4688 144.916C68.4688 145.253 68.3525 145.536 68.1201 145.764C67.8877 145.992 67.6029 146.105 67.2656 146.105ZM77.123 140.814V151H74.9766V142.858H74.915L72.5908 144.328V142.414L75.1064 140.814H77.123ZM83.3643 151.144C82.8812 151.144 82.446 151.059 82.0586 150.891C81.6758 150.717 81.375 150.462 81.1562 150.125C80.9375 149.788 80.8281 149.368 80.8281 148.867C80.8281 148.439 80.9056 148.083 81.0605 147.801C81.2155 147.514 81.4274 147.281 81.6963 147.104C81.9652 146.926 82.2705 146.791 82.6123 146.7C82.9541 146.609 83.3164 146.545 83.6992 146.509C84.1413 146.468 84.4967 146.427 84.7656 146.386C85.0345 146.345 85.2305 146.283 85.3535 146.201C85.4811 146.115 85.5449 145.992 85.5449 145.832V145.798C85.5449 145.483 85.4447 145.24 85.2441 145.066C85.0482 144.893 84.7702 144.807 84.4102 144.807C84.0319 144.807 83.7288 144.891 83.501 145.06C83.2777 145.224 83.1296 145.433 83.0566 145.688L81.0947 145.531C81.195 145.066 81.391 144.665 81.6826 144.328C81.9743 143.986 82.3503 143.724 82.8105 143.542C83.2754 143.355 83.8132 143.262 84.4238 143.262C84.8477 143.262 85.2533 143.312 85.6406 143.412C86.028 143.512 86.3721 143.667 86.6729 143.877C86.9782 144.082 87.2197 144.349 87.3975 144.677C87.5752 145.005 87.6641 145.395 87.6641 145.846V151H85.6475V149.934H85.5928C85.4697 150.175 85.3057 150.387 85.1006 150.569C84.8955 150.747 84.6494 150.888 84.3623 150.993C84.0752 151.093 83.7425 151.144 83.3643 151.144ZM83.9727 149.681C84.2826 149.681 84.556 149.619 84.793 149.496C85.0345 149.368 85.2214 149.2 85.3535 148.99C85.4902 148.776 85.5586 148.537 85.5586 148.272V147.459C85.4948 147.5 85.4036 147.539 85.2852 147.575C85.1712 147.612 85.0436 147.644 84.9023 147.671C84.7611 147.698 84.6198 147.723 84.4785 147.746C84.3372 147.764 84.2096 147.783 84.0957 147.801C83.8451 147.837 83.6263 147.896 83.4395 147.979C83.2526 148.056 83.1068 148.163 83.002 148.3C82.9017 148.432 82.8516 148.598 82.8516 148.799C82.8516 149.086 82.9564 149.305 83.166 149.455C83.3757 149.605 83.6445 149.681 83.9727 149.681ZM84.499 142.544C84.1846 142.544 83.8975 142.471 83.6377 142.325C83.3825 142.179 83.1774 141.983 83.0225 141.737C82.8721 141.491 82.7969 141.215 82.7969 140.91C82.7969 140.609 82.8721 140.334 83.0225 140.083C83.1774 139.832 83.3825 139.632 83.6377 139.481C83.8975 139.331 84.1846 139.258 84.499 139.263C84.8135 139.258 85.0983 139.331 85.3535 139.481C85.6087 139.632 85.8115 139.832 85.9619 140.083C86.1169 140.334 86.1921 140.609 86.1875 140.91C86.1921 141.215 86.1169 141.491 85.9619 141.737C85.8115 141.983 85.6087 142.179 85.3535 142.325C85.0983 142.471 84.8135 142.544 84.499 142.544ZM84.499 141.662C84.7178 141.658 84.9001 141.58 85.0459 141.43C85.1963 141.279 85.2715 141.106 85.2715 140.91C85.2715 140.71 85.1963 140.534 85.0459 140.384C84.9001 140.229 84.7178 140.154 84.499 140.158C84.2757 140.158 84.0889 140.233 83.9385 140.384C83.7926 140.534 83.7197 140.71 83.7197 140.91C83.7197 141.106 83.7926 141.282 83.9385 141.437C84.0889 141.587 84.2757 141.662 84.499 141.662ZM88.9014 151V143.357H90.9453V144.697H91.0273C91.1686 144.223 91.4033 143.866 91.7314 143.624C92.0596 143.378 92.4355 143.255 92.8594 143.255C92.9688 143.255 93.0827 143.262 93.2012 143.275C93.3242 143.285 93.4336 143.303 93.5293 143.33V145.203C93.429 145.171 93.29 145.146 93.1123 145.128C92.9391 145.105 92.7773 145.094 92.627 145.094C92.3216 145.094 92.0459 145.162 91.7998 145.299C91.5537 145.431 91.36 145.618 91.2188 145.859C91.082 146.096 91.0137 146.37 91.0137 146.68V151H88.9014Z" fill="#1E1E1E" fill-opacity="0.7"/>
<path d="M0.65625 195V184.814H4.66895C5.43913 184.814 6.09538 184.963 6.6377 185.259C7.18457 185.55 7.60156 185.956 7.88867 186.476C8.18034 186.995 8.32617 187.594 8.32617 188.273C8.32617 188.948 8.18034 189.543 7.88867 190.058C7.59701 190.573 7.17318 190.976 6.61719 191.268C6.06576 191.555 5.39811 191.698 4.61426 191.698H2.05762V189.976H4.26562C4.68034 189.976 5.02214 189.903 5.29102 189.757C5.56445 189.611 5.76725 189.41 5.89941 189.155C6.03613 188.9 6.10449 188.606 6.10449 188.273C6.10449 187.932 6.03613 187.635 5.89941 187.385C5.76725 187.13 5.56445 186.931 5.29102 186.79C5.01758 186.649 4.6735 186.578 4.25879 186.578H2.80273V195H0.65625ZM13.8291 195.137C12.9268 195.137 12.1178 194.932 11.4023 194.521C10.6868 194.111 10.1217 193.517 9.70703 192.737C9.29232 191.958 9.08496 191.017 9.08496 189.914C9.08496 188.802 9.29232 187.856 9.70703 187.077C10.1263 186.293 10.6937 185.699 11.4092 185.293C12.1292 184.883 12.9359 184.678 13.8291 184.678C14.4215 184.678 14.9707 184.762 15.4766 184.931C15.9824 185.095 16.429 185.336 16.8164 185.655C17.2083 185.97 17.5273 186.357 17.7734 186.817C18.0195 187.273 18.1768 187.795 18.2451 188.383H16.0713C16.0303 188.105 15.9482 187.854 15.8252 187.631C15.7067 187.408 15.5495 187.218 15.3535 187.063C15.1621 186.909 14.9411 186.79 14.6904 186.708C14.4443 186.621 14.1732 186.578 13.877 186.578C13.3574 186.578 12.8994 186.71 12.5029 186.975C12.111 187.234 11.8057 187.613 11.5869 188.109C11.3727 188.602 11.2656 189.203 11.2656 189.914C11.2656 190.639 11.375 191.249 11.5938 191.746C11.8125 192.238 12.1178 192.61 12.5098 192.86C12.9017 193.111 13.3551 193.236 13.8701 193.236C14.1572 193.236 14.4238 193.198 14.6699 193.12C14.916 193.043 15.1348 192.931 15.3262 192.785C15.5176 192.639 15.6771 192.462 15.8047 192.252C15.9368 192.038 16.0257 191.794 16.0713 191.521H18.2451C18.1904 191.99 18.0514 192.441 17.8281 192.874C17.6094 193.307 17.3109 193.694 16.9326 194.036C16.5544 194.373 16.1055 194.642 15.5859 194.843C15.0664 195.039 14.4808 195.137 13.8291 195.137ZM23.9326 195.137C23.0303 195.137 22.2191 194.932 21.499 194.521C20.779 194.111 20.2093 193.517 19.79 192.737C19.3708 191.958 19.1611 191.017 19.1611 189.914C19.1611 188.802 19.3708 187.856 19.79 187.077C20.2093 186.293 20.779 185.699 21.499 185.293C22.2191 184.883 23.0303 184.678 23.9326 184.678C24.835 184.678 25.6462 184.883 26.3662 185.293C27.0863 185.699 27.6536 186.293 28.0684 187.077C28.4876 187.856 28.6973 188.802 28.6973 189.914C28.6973 191.021 28.4876 191.965 28.0684 192.744C27.6536 193.523 27.0863 194.118 26.3662 194.528C25.6462 194.934 24.835 195.137 23.9326 195.137ZM23.9326 193.236C24.4567 193.236 24.9124 193.109 25.2998 192.854C25.6872 192.598 25.9857 192.225 26.1953 191.732C26.4095 191.236 26.5166 190.63 26.5166 189.914C26.5166 189.194 26.4095 188.586 26.1953 188.089C25.9857 187.592 25.6872 187.216 25.2998 186.961C24.9124 186.706 24.4567 186.578 23.9326 186.578C23.4131 186.578 22.9596 186.706 22.5723 186.961C22.1849 187.216 21.8818 187.592 21.6631 188.089C21.4489 188.586 21.3418 189.194 21.3418 189.914C21.3418 190.63 21.4489 191.236 21.6631 191.732C21.8818 192.225 22.1849 192.598 22.5723 192.854C22.9596 193.109 23.4131 193.236 23.9326 193.236ZM33.6055 195.144C32.7852 195.144 32.0697 195.018 31.459 194.768C30.8529 194.517 30.3789 194.143 30.0371 193.646C29.6999 193.15 29.5221 192.535 29.5039 191.801H31.582C31.6094 192.138 31.7096 192.423 31.8828 192.655C32.056 192.883 32.2884 193.054 32.5801 193.168C32.8717 193.282 33.2067 193.339 33.585 193.339C33.9495 193.339 34.2663 193.286 34.5352 193.182C34.8086 193.077 35.0182 192.931 35.1641 192.744C35.3145 192.553 35.3896 192.332 35.3896 192.081C35.3896 191.853 35.3213 191.662 35.1846 191.507C35.0524 191.352 34.8564 191.22 34.5967 191.11C34.3415 191.001 34.0293 190.903 33.6602 190.816L32.5459 190.543C31.6891 190.338 31.0124 190.012 30.5156 189.565C30.0189 189.114 29.7705 188.513 29.7705 187.761C29.7705 187.146 29.9368 186.608 30.2695 186.147C30.6068 185.683 31.0648 185.323 31.6436 185.067C32.2269 184.808 32.89 184.678 33.6328 184.678C34.3893 184.678 35.0479 184.808 35.6084 185.067C36.1735 185.327 36.6133 185.687 36.9277 186.147C37.2467 186.608 37.4108 187.139 37.4199 187.74H35.3486C35.3122 187.344 35.1413 187.034 34.8359 186.811C34.5352 186.587 34.1273 186.476 33.6123 186.476C33.266 186.476 32.9697 186.526 32.7236 186.626C32.4821 186.722 32.2975 186.856 32.1699 187.029C32.0423 187.202 31.9785 187.401 31.9785 187.624C31.9785 187.861 32.0514 188.062 32.1973 188.226C32.3431 188.385 32.5368 188.517 32.7783 188.622C33.0244 188.722 33.2933 188.807 33.585 188.875L34.4941 189.101C34.9362 189.201 35.3441 189.335 35.7178 189.504C36.0915 189.668 36.415 189.871 36.6885 190.112C36.9665 190.354 37.1807 190.639 37.3311 190.967C37.4814 191.29 37.5566 191.664 37.5566 192.088C37.5566 192.712 37.3994 193.255 37.085 193.715C36.7751 194.171 36.3262 194.524 35.7383 194.774C35.1504 195.021 34.4395 195.144 33.6055 195.144ZM40.0176 193.776C39.6803 193.776 39.3955 193.662 39.1631 193.435C38.9307 193.207 38.8145 192.924 38.8145 192.587C38.8145 192.25 38.9307 191.967 39.1631 191.739C39.3955 191.511 39.6803 191.397 40.0176 191.397C40.3548 191.397 40.6396 191.511 40.8721 191.739C41.1045 191.967 41.2207 192.25 41.2207 192.587C41.2207 192.924 41.1045 193.207 40.8721 193.435C40.6396 193.662 40.3548 193.776 40.0176 193.776ZM40.0176 188.752C39.6803 188.752 39.3955 188.638 39.1631 188.41C38.9307 188.182 38.8145 187.9 38.8145 187.562C38.8145 187.225 38.9307 186.943 39.1631 186.715C39.3955 186.487 39.6803 186.373 40.0176 186.373C40.3548 186.373 40.6396 186.487 40.8721 186.715C41.1045 186.943 41.2207 187.225 41.2207 187.562C41.2207 187.9 41.1045 188.182 40.8721 188.41C40.6396 188.638 40.3548 188.752 40.0176 188.752ZM49.3008 195.137C48.5534 195.137 47.8903 195.009 47.3115 194.754C46.7373 194.499 46.2839 194.146 45.9512 193.694C45.6185 193.239 45.4476 192.715 45.4385 192.122H47.5986C47.6123 192.368 47.6943 192.585 47.8447 192.771C47.9951 192.958 48.1956 193.104 48.4463 193.209C48.7015 193.309 48.9863 193.359 49.3008 193.359C49.6289 193.359 49.9183 193.302 50.1689 193.188C50.4242 193.075 50.6224 192.915 50.7637 192.71C50.9049 192.505 50.9756 192.268 50.9756 191.999C50.9756 191.721 50.9004 191.479 50.75 191.274C50.5996 191.065 50.3854 190.901 50.1074 190.782C49.8294 190.664 49.4967 190.604 49.1094 190.604H48.1592V189.019H49.1094C49.4375 189.019 49.7246 188.962 49.9707 188.848C50.2168 188.734 50.4105 188.576 50.5518 188.376C50.693 188.175 50.7637 187.943 50.7637 187.679C50.7637 187.419 50.7021 187.193 50.5791 187.002C50.4606 186.811 50.2943 186.66 50.0801 186.551C49.8659 186.441 49.613 186.387 49.3213 186.387C49.0251 186.387 48.7562 186.439 48.5146 186.544C48.2731 186.649 48.0794 186.797 47.9336 186.988C47.7878 187.175 47.7126 187.398 47.708 187.658H45.6367C45.6458 187.07 45.8122 186.553 46.1357 186.106C46.4593 185.66 46.8968 185.311 47.4482 185.061C48.0042 184.805 48.6309 184.678 49.3281 184.678C50.0345 184.678 50.6497 184.805 51.1738 185.061C51.7025 185.316 52.1126 185.66 52.4043 186.093C52.696 186.526 52.8418 187.011 52.8418 187.549C52.8418 188.118 52.6641 188.595 52.3086 188.978C51.9531 189.356 51.4906 189.597 50.9209 189.702V189.777C51.6683 189.873 52.2357 190.133 52.623 190.557C53.015 190.98 53.2109 191.509 53.2109 192.143C53.2109 192.721 53.0423 193.236 52.7051 193.688C52.3724 194.139 51.9121 194.494 51.3242 194.754C50.7363 195.009 50.0618 195.137 49.3008 195.137ZM59.3018 195.144C58.8187 195.144 58.3835 195.059 57.9961 194.891C57.6133 194.717 57.3125 194.462 57.0938 194.125C56.875 193.788 56.7656 193.368 56.7656 192.867C56.7656 192.439 56.8431 192.083 56.998 191.801C57.153 191.514 57.3649 191.281 57.6338 191.104C57.9027 190.926 58.208 190.791 58.5498 190.7C58.8916 190.609 59.2539 190.545 59.6367 190.509C60.0788 190.468 60.4342 190.427 60.7031 190.386C60.972 190.345 61.168 190.283 61.291 190.201C61.4186 190.115 61.4824 189.992 61.4824 189.832V189.798C61.4824 189.483 61.3822 189.24 61.1816 189.066C60.9857 188.893 60.7077 188.807 60.3477 188.807C59.9694 188.807 59.6663 188.891 59.4385 189.06C59.2152 189.224 59.0671 189.433 58.9941 189.688L57.0322 189.531C57.1325 189.066 57.3285 188.665 57.6201 188.328C57.9118 187.986 58.2878 187.724 58.748 187.542C59.2129 187.355 59.7507 187.262 60.3613 187.262C60.7852 187.262 61.1908 187.312 61.5781 187.412C61.9655 187.512 62.3096 187.667 62.6104 187.877C62.9157 188.082 63.1572 188.349 63.335 188.677C63.5127 189.005 63.6016 189.395 63.6016 189.846V195H61.585V193.934H61.5303C61.4072 194.175 61.2432 194.387 61.0381 194.569C60.833 194.747 60.5869 194.888 60.2998 194.993C60.0127 195.093 59.68 195.144 59.3018 195.144ZM59.9102 193.681C60.2201 193.681 60.4935 193.619 60.7305 193.496C60.972 193.368 61.1589 193.2 61.291 192.99C61.4277 192.776 61.4961 192.537 61.4961 192.272V191.459C61.4323 191.5 61.3411 191.539 61.2227 191.575C61.1087 191.612 60.9811 191.644 60.8398 191.671C60.6986 191.698 60.5573 191.723 60.416 191.746C60.2747 191.764 60.1471 191.783 60.0332 191.801C59.7826 191.837 59.5638 191.896 59.377 191.979C59.1901 192.056 59.0443 192.163 58.9395 192.3C58.8392 192.432 58.7891 192.598 58.7891 192.799C58.7891 193.086 58.8939 193.305 59.1035 193.455C59.3132 193.605 59.582 193.681 59.9102 193.681ZM60.4365 186.544C60.1221 186.544 59.835 186.471 59.5752 186.325C59.32 186.179 59.1149 185.983 58.96 185.737C58.8096 185.491 58.7344 185.215 58.7344 184.91C58.7344 184.609 58.8096 184.334 58.96 184.083C59.1149 183.832 59.32 183.632 59.5752 183.481C59.835 183.331 60.1221 183.258 60.4365 183.263C60.751 183.258 61.0358 183.331 61.291 183.481C61.5462 183.632 61.749 183.832 61.8994 184.083C62.0544 184.334 62.1296 184.609 62.125 184.91C62.1296 185.215 62.0544 185.491 61.8994 185.737C61.749 185.983 61.5462 186.179 61.291 186.325C61.0358 186.471 60.751 186.544 60.4365 186.544ZM60.4365 185.662C60.6553 185.658 60.8376 185.58 60.9834 185.43C61.1338 185.279 61.209 185.106 61.209 184.91C61.209 184.71 61.1338 184.534 60.9834 184.384C60.8376 184.229 60.6553 184.154 60.4365 184.158C60.2132 184.158 60.0264 184.233 59.876 184.384C59.7301 184.534 59.6572 184.71 59.6572 184.91C59.6572 185.106 59.7301 185.282 59.876 185.437C60.0264 185.587 60.2132 185.662 60.4365 185.662ZM64.8389 195V187.357H66.8828V188.697H66.9648C67.1061 188.223 67.3408 187.866 67.6689 187.624C67.9971 187.378 68.373 187.255 68.7969 187.255C68.9062 187.255 69.0202 187.262 69.1387 187.275C69.2617 187.285 69.3711 187.303 69.4668 187.33V189.203C69.3665 189.171 69.2275 189.146 69.0498 189.128C68.8766 189.105 68.7148 189.094 68.5645 189.094C68.2591 189.094 67.9834 189.162 67.7373 189.299C67.4912 189.431 67.2975 189.618 67.1562 189.859C67.0195 190.096 66.9512 190.37 66.9512 190.68V195H64.8389Z" fill="#1E1E1E" fill-opacity="0.7"/>
<path d="M188 14C188 10.6863 190.686 8 194 8H244V20H194C190.686 20 188 17.3137 188 14Z" fill="#5E0030"/>
<rect x="244" y="8" width="56" height="12" fill="#5E0030"/>
<rect x="300" y="8" width="56" height="12" fill="#5E0030"/>
<rect x="356" y="8" width="56" height="12" fill="#5E0030"/>
<path d="M412 8H462C465.314 8 468 10.6863 468 14C468 17.3137 465.314 20 462 20H412V8Z" fill="#5E0030"/>
<path d="M188 58C188 54.6863 190.686 52 194 52H204V64H194C190.686 64 188 61.3137 188 58Z" fill="#5E0030"/>
<rect x="204" y="52" width="96" height="12" fill="#5E0030" fill-opacity="0.3"/>
<rect x="300" y="52" width="56" height="12" fill="#5E0030" fill-opacity="0.3"/>
<rect x="356" y="52" width="56" height="12" fill="#5E0030" fill-opacity="0.3"/>
<path d="M412 52H462C465.314 52 468 54.6863 468 58C468 61.3137 465.314 64 462 64H412V52Z" fill="#5E0030" fill-opacity="0.3"/>
<path d="M188 102C188 98.6863 190.686 96 194 96H244V108H194C190.686 108 188 105.314 188 102Z" fill="#5E0030"/>
<rect x="244" y="96" width="56" height="12" fill="#5E0030"/>
<rect x="300" y="96" width="56" height="12" fill="#5E0030" fill-opacity="0.3"/>
<rect x="356" y="96" width="56" height="12" fill="#5E0030" fill-opacity="0.3"/>
<path d="M412 96H462C465.314 96 468 98.6863 468 102C468 105.314 465.314 108 462 108H412V96Z" fill="#5E0030" fill-opacity="0.3"/>
<rect x="356" y="140" width="56" height="12" fill="#5E0030" fill-opacity="0.3"/>
<path d="M412 140H462C465.314 140 468 142.686 468 146C468 149.314 465.314 152 462 152H412V140Z" fill="#5E0030" fill-opacity="0.3"/>
<path d="M188 146C188 142.686 190.686 140 194 140H244V152H194C190.686 152 188 149.314 188 146Z" fill="#5E0030"/>
<rect x="244" y="140" width="56" height="12" fill="#5E0030" fill-opacity="0.3"/>
<rect x="300" y="140" width="56" height="12" fill="#5E0030" fill-opacity="0.3"/>
<rect x="356" y="184" width="56" height="12" fill="#5E0030" fill-opacity="0.3"/>
<path d="M412 184H462C465.314 184 468 186.686 468 190C468 193.314 465.314 196 462 196H412V184Z" fill="#5E0030" fill-opacity="0.3"/>
<path d="M188 190C188 186.686 190.686 184 194 184H244V196H194C190.686 196 188 193.314 188 190Z" fill="#5E0030"/>
<rect x="244" y="184" width="56" height="12" fill="#5E0030"/>
<rect x="300" y="184" width="56" height="12" fill="#5E0030"/>
</svg>
