<?xml version="1.0" encoding="UTF-8"?>
<svg id="Layer_1" data-name="Layer 1" xmlns="http://www.w3.org/2000/svg" viewBox="0 0 561.58 526.46">
  <defs>
    <style>
      .cls-1 {
        letter-spacing: 0em;
      }

      .cls-2 {
        stroke-linecap: round;
      }

      .cls-2, .cls-3, .cls-4 {
        stroke: #fff;
        stroke-width: 7px;
      }

      .cls-2, .cls-4 {
        fill: none;
        stroke-miterlimit: 10;
      }

      .cls-5 {
        letter-spacing: -.02em;
      }

      .cls-6 {
        letter-spacing: 0em;
      }

      .cls-7 {
        letter-spacing: -.03em;
      }

      .cls-8 {
        letter-spacing: -.02em;
      }

      .cls-9 {
        letter-spacing: -.05em;
      }

      .cls-10 {
        letter-spacing: -.02em;
      }

      .cls-11 {
        letter-spacing: 0em;
      }

      .cls-12 {
        fill: #fff;
        font-family: InterTight-ExtraBold, 'Inter Tight';
        font-size: 17.32px;
        font-variation-settings: 'wght' 800;
        font-weight: 700;
      }

      .cls-13 {
        letter-spacing: -.07em;
      }

      .cls-14 {
        letter-spacing: -.03em;
      }
    </style>
  </defs>
  <path class="cls-4" d="M45.06,417.64c-3.31,1.65-2.65,7.32-1.72,16.69,1.44,14.07,3.6,35.24,5.11,50.01.81,7.05.94,12.36,2.99,18.55,6.43,19.55,36.2,28.22,49.44,10.28,8.52-13.62,3.26-40.39,7.59-53.55.94-.63,2.57,3.42,4.98,10.19,2.99,8.36,6.97,20.3,10.17,28.94,9.18,30.85,41.54,19.61,49.93-5.43,3.9-10.55,2.59-22.16,1.34-33.23-2.04-12.03-2.35-30.77-5.25-41.07-3.67-9.77-15.78-4.43-23.59-2.48-8.62,2.48-18.35,5.44-26.07,6.67-16.69,2.63-33.61,1.37-50.24-2.38-7.47-1.22-17.61-5.25-24.46-3.32l-.22.11Z"/>
  <path class="cls-4" d="M36.87,308.78l-12.2,14.56c-7.07,8.44-11.84,18.56-13.84,29.39l-.59,3.21c-2.85,15.38.97,31.49,11.27,43.26,5.36,6.12,12.07,10.8,20.58,12.81,14.08,2.35,32.48,2.39,42.74-8.91,6.56-6.93,7.56-18.83,2.02-26.63-7.71-10.99-23.57-12.42-35.86-16.9"/>
  <path class="cls-4" d="M56.39,413.19c.03-.55.04-1.12.05-1.69.11-10.23,2.75-20.28,8-29.07.99-1.66,1.95-3.26,2.81-4.74,2.05-3.42,6.7-7.53,9.16-9.96"/>
  <path class="cls-4" d="M43.12,419l-2.35-7.33"/>
  <path class="cls-4" d="M169.79,419.64c.02-3.76-.67-24.48-1.14-39.61-.32-10.15,3.77-19.93,11.21-26.84l65.32-60.71c6.09-9.05,4.43-21.35-3.82-28.43-8.2-7.04-20.53-6.88-28.56.41-16.76,12.61-38.5,23.42-55.26,36.02"/>
  <path class="cls-2" d="M179.63,242.65c0,47.88-38.82,86.7-86.7,86.7S6.23,290.53,6.23,242.65c0-39.43,26.32-72.69,62.34-83.24-2.14-3.62-3.36-7.82-3.36-12.34,0-13.42,10.91-24.31,24.34-24.31s24.34,10.89,24.34,24.31c0,3.91-.92,7.58-2.54,10.86,39.03,8.43,68.28,43.15,68.28,84.72Z"/>
  <path class="cls-4" d="M184.41,276.14c-.66,25.46-7.91,18.51-7.22-2.66,1.54-24.78,7.48-12.97,7.22,2.12v.54Z"/>
  <path class="cls-4" d="M10.76,281.44c-.66,25.46-7.91,18.51-7.22-2.66,1.54-24.78,7.48-12.97,7.22,2.12v.54Z"/>
  <path class="cls-4" d="M6.63,234.32c56.56-24.75,75.45-54.44,75.45-54.44,0,0,29.58,45.9,96.2,47.46"/>
  <path class="cls-4" d="M50.89,501.69l4.95-2.02c7.14-2.91,14.69-4.77,22.38-5.17.21-.01.42-.02.63-.03,5.64-.27,11.29.33,16.81,1.48l9.62,2.01"/>
  <path class="cls-4" d="M124.64,497.94c7.14-2.91,14.69-4.77,22.38-5.17.21-.01.42-.02.63-.03,5.64-.27,18.62,1.42,24.15,2.57"/>
  <line class="cls-4" x1="241.36" y1="294.4" x2="211.59" y2="265.36"/>
  <path class="cls-4" d="M43.12,281.11s39.64,36.9,86.42,6.32"/>
  <path class="cls-4" d="M53.26,264.03c.02-.13,2.03-12.78,2.06-12.92"/>
  <path class="cls-4" d="M22.81,260.5c1.58-3.15,3.78-10.47,6.17-13.13,1.11-.88,2.92-.06,4.2.53,4.3,2.4,9.02,2.97,13.93,3.3,3.38.32,7.35-.49,11.09-1.09,6.91-.87,13.42-2.06,18.83-6.27,3.13-1.46,2.62,1.61,3.41,5.25.64,4.14,1.1,6.99,1.64,10.41"/>
  <path class="cls-4" d="M129.05,261.84c.03-.13,2.78-12.64,2.81-12.77"/>
  <path class="cls-4" d="M123.67,248.92c3.37.51,7.41-.05,11.2-.41,6.96-.44,13.55-1.18,19.25-4.97,3.18-1.24,2.5,1.67,3.04,5.29.37,4.05.65,6.84.93,10.19"/>
  <path class="cls-4" d="M98.85,256.52c1.73-2.97,4.35-9.95,6.85-12.37,1.15-.79,2.92.11,4.17.76,4.19,2.59,8.89,3.41,13.79,4.02"/>
  <path class="cls-4" d="M196.16,209.5l8.35-37.39c.48-2.13-.11-4.36-1.58-5.97l-44.04-48.51c-2.56-2.82-2.26-7.19.65-9.64,10.1-8.51,132.72-99.72,136.98-102.92,1.89-1.42,3.87-1.56,3.87-1.56,1.52-.1,2.9.38,4.04,1.03l250.55,70.04c3.65,2.32,4.19,7.43,1.1,10.46l-75.14,73.55c-1.07,1.05-2.46,1.71-3.94,1.87l-217.44,24.37c-.97.11-1.91.43-2.75.94l-50.6,30.91c-5.05,3.09-11.33-1.41-10.04-7.18Z"/>
  <text class="cls-12" transform="translate(207.91 94.42)"><tspan x="0" y="0">Er du klar til at læ</tspan><tspan class="cls-14" x="136.18" y="0">r</tspan><tspan class="cls-1" x="142.49" y="0">e me</tspan><tspan class="cls-14" x="181.2" y="0">r</tspan><tspan class="cls-1" x="187.52" y="0">e om en s</tspan><tspan class="cls-5" x="262.99" y="0">y</tspan><tspan x="272.52" y="0">gdom</tspan><tspan class="cls-9" x="319.53" y="0">,</tspan><tspan x="324.69" y="0"> </tspan><tspan x="0" y="20.79">de fles</tspan><tspan class="cls-11" x="53.98" y="20.79">t</tspan><tspan class="cls-1" x="60.27" y="20.79">e ik</tspan><tspan class="cls-8" x="87.69" y="20.79">k</tspan><tspan class="cls-1" x="97.1" y="20.79">e taler om? </tspan><tspan class="cls-13" x="0" y="41.58">T</tspan><tspan class="cls-6" x="9.97" y="41.58">ag quiz</tspan><tspan class="cls-10" x="68.68" y="41.58">z</tspan><tspan x="78.01" y="41.58">en og bliv</tspan><tspan class="cls-3" x="155.08" y="41.58"> </tspan><tspan class="cls-1" x="158.33" y="41.58">kloge</tspan><tspan class="cls-7" x="203.34" y="41.58">r</tspan><tspan x="209.66" y="41.58">e</tspan><tspan class="cls-9" x="219.59" y="41.58">.</tspan></text>
</svg>