<?xml version="1.0" encoding="UTF-8"?>
<svg id="Layer_1" data-name="Layer 1" xmlns="http://www.w3.org/2000/svg" viewBox="0 0 293.78 580.54">
  <defs>
    <style>
      .cls-1, .cls-2 {
        fill: none;
        stroke: #fff;
        stroke-miterlimit: 10;
        stroke-width: 8px;
      }

      .cls-2 {
        stroke-linecap: round;
      }
    </style>
  </defs>
  <path class="cls-1" d="M63.46,425.86c-4.74,2.35-3.79,10.48-2.47,23.88,2.06,20.12,5.15,50.41,7.31,71.55,1.16,10.08,1.35,17.68,4.27,26.54,9.21,27.96,51.79,40.38,70.73,14.71,12.19-19.49,4.67-57.78,10.86-76.61,1.35-.9,3.68,4.9,7.12,14.58,4.28,11.96,9.98,29.04,14.54,41.41,13.14,44.14,59.43,28.06,71.43-7.76,5.58-15.1,3.7-31.71,1.92-47.54-2.91-17.21-3.36-44.02-7.52-58.76-5.25-13.98-22.57-6.34-33.74-3.54-12.33,3.55-26.26,7.79-37.3,9.54-23.88,3.76-48.08,1.96-71.87-3.4-10.69-1.74-25.19-7.52-34.99-4.74l-.31.16Z"/>
  <path class="cls-1" d="M51.73,270.13l-17.45,20.83c-10.11,12.07-16.94,26.55-19.8,42.04l-.85,4.59c-4.07,22,1.39,45.05,16.13,61.88,7.66,8.75,17.27,15.46,29.45,18.32,20.15,3.36,46.47,3.41,61.15-12.74,9.39-9.91,10.81-26.94,2.89-38.09-11.03-15.72-33.71-17.78-51.3-24.18"/>
  <path class="cls-1" d="M79.66,419.5c.04-.79.06-1.6.07-2.42.16-14.64,3.93-29.02,11.45-41.58,1.42-2.37,2.79-4.66,4.02-6.77,2.93-4.89,9.58-10.77,13.11-14.25"/>
  <path class="cls-1" d="M60.68,427.8c-1.22-3.81-2.77-8.65-3.36-10.49"/>
  <path class="cls-1" d="M213.67,325.46c-12.09,11.25-27.9,20.72-32.95,36.77-2.78,10.24-.99,24.52,6.65,32.83,15.76,17.39,43.17,7.48,57.37-7.18,3.92-3.61,106.73-81.5-12.04-140"/>
  <path class="cls-1" d="M189.4,346.58c5.58,3.9,10.3,7.2,14.98,10.48,4.22,2.91,8.95,9.04,12.89,13,6.08,6.6,9.84,17.72,14.21,25.54"/>
  <path class="cls-1" d="M241.9,428.72c.05-8.25.05-33.42.09-39.43"/>
  <path class="cls-2" d="M161.93,38.78c0,5.6-1.32,10.85-3.63,15.54,55.84,12.06,97.69,61.73,97.69,121.2,0,68.5-55.53,124.04-124.04,124.04S7.91,244.02,7.91,175.52c0-56.4,37.65-104,89.18-119.08-3.06-5.18-4.8-11.19-4.8-17.65"/>
  <path class="cls-2" d="M92.29,38.78c0-19.2,15.61-34.78,34.82-34.78s34.82,15.58,34.82,34.78"/>
  <polyline class="cls-1" points="47.01 177.26 89.47 197.85 47.01 213.94"/>
  <polyline class="cls-1" points="204.01 177.19 155.74 197.78 204.01 213.86"/>
  <path class="cls-1" d="M79.66,258.78c16.25-8.16,16.89,15.04,39.41,5.05,22.52-10,28.31-11.66,48.26-2.14"/>
  <path class="cls-1" d="M262.81,223.42c-.95,36.42-11.31,26.48-10.32-3.81,2.21-35.45,10.7-18.55,10.32,3.03v.78Z"/>
  <path class="cls-1" d="M14.39,231.01c-.95,36.42-11.31,26.48-10.32-3.81,2.21-35.45,10.7-18.55,10.32,3.03v.78Z"/>
  <path class="cls-1" d="M8.48,163.6c80.91-35.41,107.94-77.88,107.94-77.88,0,0,42.32,65.66,137.63,67.9"/>
  <path class="cls-1" d="M71.79,546.11l7.09-2.89c10.21-4.16,21.01-6.82,32.02-7.4.3-.02.6-.03.9-.05,8.07-.39,16.15.47,24.05,2.12l13.77,2.87"/>
  <path class="cls-1" d="M177.31,540.74c10.21-4.16,21.01-6.82,32.02-7.4.3-.02.6-.03.9-.05,8.07-.39,26.64,2.03,34.55,3.68"/>
</svg>