<?xml version="1.0" encoding="UTF-8"?>
<svg id="Layer_1" data-name="Layer 1" xmlns="http://www.w3.org/2000/svg" viewBox="0 0 415.59 411.68">
  <defs>
    <style>
      .cls-1, .cls-2 {
        fill: none;
        stroke: #fff;
        stroke-miterlimit: 10;
        stroke-width: 8px;
      }

      .cls-2 {
        stroke-linecap: round;
      }
    </style>
  </defs>
  <path class="cls-1" d="M105.75,281.89c-58.11,14.71-91.25,58.57-97.5,73.1"/>
  <path class="cls-1" d="M81.17,405.73c125.64,11.45,141.85-30.67,152.15-42.46,11.09-14.31-9.94-29.11-20.59-39.01-8.13-6.72-15.68-14.13-26-16.62-13.9-4.32-63.92-18.93-82.23-24.59"/>
  <path class="cls-1" d="M161.87,324.77c-13.53,3.76-86.66,3.33-103.48,30.69-16.08,26.14-1.81,48.14,22.79,50.27"/>
  <path class="cls-1" d="M94.71,381.96c-4.34,8.87-9.26,17.25-14.42,25.28"/>
  <path class="cls-1" d="M86.37,334.2c1.33,4.24,4.25,9.09,6.94,13.53,3.43,5.66,5.18,12.19,5.08,18.81,0,.07,0,.13,0,.2-.09,5.28-1.37,10.47-3.69,15.22"/>
  <path class="cls-1" d="M8.32,354.62c2.24-3.67,8.33-1.12,12.04-1.27,11.79.8,22.34,2.99,33.55,4.96"/>
  <path class="cls-1" d="M58.39,387.98c-18.21,15.97-69.36,11.46-50.13-32.99"/>
  <path class="cls-1" d="M104.5,283.05c7.05-6.27,13.4-16.74,21.75-19.81,7.28-.58,16.39,4.04,23.96,5.87,5.73,1.77,10.64,3.29,16.5,5.1,9.83,2.17,23.63,9.92,32.44,6.32,2.68-1.03,5.58-2.55,8.12-4.12,10.81-5.73,13.89-22.72,8.27-33.21-8.69-11.67-25.94-15.56-38.38-23.02"/>
  <path class="cls-1" d="M171.73,265.04c-.82,1.63-4.72,9.55-4.85,9.82,1.74-3.26,3.67-7.22,5.68-11.3,5.53-11.24,13.32-21.26,22.99-29.22.21-.17.38-.31.53-.43,1.93-1.23,3.99-1.38,6.34-1.85"/>
  <path class="cls-1" d="M126.23,262.04c-.33-.84-.7-1.71-1.1-2.62-5.39-12.24-24.77-51.96,81.68-81.34"/>
  <path class="cls-1" d="M345.58,368.91c-3.93-3.89-20.46-13.99-62.12,6.69"/>
  <path class="cls-1" d="M286.43,381.16c19.98,41.88,59.17,1.57,59.15-12.25"/>
  <path class="cls-1" d="M237.97,356.74c11.04-8.03,29.06-21.27,38.94-28.15,1.22-.81,2.74-1.72,3.92-1.75,2.26-.06,1.74,5.04,1.43,13.63-.44,10.46-.53,30.81,4.18,40.69"/>
  <path class="cls-1" d="M345.42,237.65c1.09,13.98-.62,117.52.16,131.26"/>
  <path class="cls-1" d="M252.61,146.79c.09-.14,8.66-13.22,8.76-13.36"/>
  <path class="cls-1" d="M220.46,127.61c3.34-2.71,9.45-9.77,13.44-11.54,1.68-.42,3.28,1.39,4.41,2.69,3.59,4.82,8.56,7.82,13.87,10.65,3.6,2.05,8.44,3.13,12.9,4.34,8.14,2.49,15.98,4.43,24.12,2.45,4.22-.06,2.12,3.1,1.17,7.55-1.36,4.93-2.27,8.33-3.39,12.42"/>
  <path class="cls-1" d="M338.12,182.29c.1-.13,9.43-12.68,9.53-12.82"/>
  <path class="cls-1" d="M307.15,161.25c3.41-2.44,9.82-8.9,13.83-10.35,1.68-.3,3.19,1.58,4.26,2.93,3.37,4.98,8.2,8.25,13.35,11.38,3.49,2.26,8.27,3.65,12.67,5.15,7.97,2.99,15.68,5.46,23.93,4.1,4.16.21,1.94,3.12.74,7.41-1.61,4.7-2.7,7.94-4.06,11.82"/>
  <path class="cls-2" d="M399.3,188.29c-27.32,51.7-91.38,71.46-143.08,44.14-51.7-27.32-71.46-91.38-44.14-143.08,22.49-42.57,69.89-63.47,114.8-54.31-.25-5.13.84-10.36,3.42-15.24,7.66-14.49,25.65-20.02,40.15-12.36,14.52,7.67,20.07,25.64,12.41,40.13-2.23,4.22-5.33,7.66-8.94,10.28,37.33,31.37,49.1,85.55,25.39,130.43Z"/>
  <path class="cls-1" d="M385.86,226.09c-7.52,30.17-14.32,19.97-7.9-5.08,8.4-29.14,12.35-13.48,8.04,4.44l-.14.65Z"/>
  <path class="cls-1" d="M194.84,133.81c-15.24,27.11-19.09,15.47-6.27-6.99,15.81-25.88,15.47-9.73,6.58,6.41l-.31.59Z"/>
  <path class="cls-1" d="M217.27,80.59c75.18,5.55,112.52-15.73,112.52-15.73,0,0,5.75,66.43,76.79,106.13"/>
  <path class="cls-1" d="M305.49,219.06c-.44-2.88-3.08-18.17-17.22-28.32-16.41-11.78-34.67-6.85-36.95-6.19"/>
</svg>