<svg width="342" height="137" viewBox="0 0 342 137" fill="none" xmlns="http://www.w3.org/2000/svg">
<mask id="mask0_291_73" style="mask-type:alpha" maskUnits="userSpaceOnUse" x="68" y="0" width="69" height="69">
<rect x="68.4004" width="68.4" height="68.4" fill="#D9D9D9"/>
</mask>
<g mask="url(#mask0_291_73)">
<path d="M98.9775 59.9319V45.7645H92.8066C92.1145 45.7645 91.5514 45.4767 91.1172 44.901C90.6831 44.3258 90.5848 43.7147 90.8223 43.0677L97.2625 23.6279C97.6411 22.5007 98.3282 21.6241 99.3238 20.998C100.319 20.3725 101.409 20.0597 102.593 20.0597C103.779 20.0597 104.871 20.3725 105.87 20.998C106.868 21.6241 107.558 22.5007 107.939 23.6279L114.379 43.0677C114.616 43.7147 114.518 44.3258 114.084 44.901C113.65 45.4767 113.087 45.7645 112.395 45.7645H106.224V59.9319C106.224 60.5147 106.022 61.003 105.619 61.3968C105.216 61.7906 104.732 61.9875 104.168 61.9875H101.033C100.469 61.9875 99.985 61.7906 99.5817 61.3968C99.1789 61.003 98.9775 60.5147 98.9775 59.9319ZM102.606 16.1025C101.243 16.1025 100.085 15.6229 99.1314 14.6639C98.1776 13.7049 97.7007 12.553 97.7007 11.2083C97.7007 9.84552 98.1757 8.68723 99.1257 7.73343C100.076 6.77963 101.232 6.30273 102.595 6.30273C103.958 6.30273 105.116 6.77773 106.07 7.72773C107.024 8.67773 107.5 9.83412 107.5 11.1969C107.5 12.5416 107.025 13.6954 106.075 14.6582C105.125 15.621 103.969 16.1025 102.606 16.1025Z" fill="#5E0030" fill-opacity="0.3"/>
</g>
<mask id="mask1_291_73" style="mask-type:alpha" maskUnits="userSpaceOnUse" x="0" y="0" width="69" height="69">
<rect width="68.4" height="68.4" fill="#D9D9D9"/>
</mask>
<g mask="url(#mask1_291_73)">
<path d="M30.5771 59.9319V45.7645H24.4062C23.7141 45.7645 23.151 45.4767 22.7168 44.901C22.2827 44.3258 22.1844 43.7147 22.4219 43.0677L28.8622 23.6279C29.2407 22.5007 29.9278 21.6241 30.9234 20.998C31.9185 20.3725 33.0084 20.0597 34.1931 20.0597C35.3782 20.0597 36.4702 20.3725 37.4692 20.998C38.4681 21.6241 39.1578 22.5007 39.5383 23.6279L45.9785 43.0677C46.216 43.7147 46.1177 44.3258 45.6836 44.901C45.2494 45.4767 44.6863 45.7645 43.9942 45.7645H37.8233V59.9319C37.8233 60.5147 37.6219 61.003 37.2191 61.3968C36.8158 61.7906 36.332 61.9875 35.7677 61.9875H32.6327C32.0684 61.9875 31.5846 61.7906 31.1813 61.3968C30.7785 61.003 30.5771 60.5147 30.5771 59.9319ZM34.2059 16.1025C32.8427 16.1025 31.6844 15.6229 30.731 14.6639C29.7772 13.7049 29.3003 12.553 29.3003 11.2083C29.3003 9.84552 29.7753 8.68723 30.7253 7.73343C31.6753 6.77963 32.8317 6.30273 34.1945 6.30273C35.5578 6.30273 36.716 6.77773 37.6694 7.72773C38.6232 8.67773 39.1001 9.83412 39.1001 11.1969C39.1001 12.5416 38.6251 13.6954 37.6751 14.6582C36.7251 15.621 35.5687 16.1025 34.2059 16.1025Z" fill="#5E0030"/>
</g>
<mask id="mask2_291_73" style="mask-type:alpha" maskUnits="userSpaceOnUse" x="136" y="0" width="70" height="69">
<rect x="136.8" width="68.4" height="68.4" fill="#D9D9D9"/>
</mask>
<g mask="url(#mask2_291_73)">
<path d="M167.377 59.9319V45.7645H161.206C160.514 45.7645 159.951 45.4767 159.517 44.901C159.082 44.3258 158.984 43.7147 159.222 43.0677L165.662 23.6279C166.041 22.5007 166.728 21.6241 167.723 20.998C168.718 20.3725 169.808 20.0597 170.993 20.0597C172.178 20.0597 173.27 20.3725 174.269 20.998C175.268 21.6241 175.958 22.5007 176.338 23.6279L182.778 43.0677C183.016 43.7147 182.918 44.3258 182.483 44.901C182.049 45.4767 181.486 45.7645 180.794 45.7645H174.623V59.9319C174.623 60.5147 174.422 61.003 174.019 61.3968C173.616 61.7906 173.132 61.9875 172.568 61.9875H169.433C168.868 61.9875 168.384 61.7906 167.981 61.3968C167.578 61.003 167.377 60.5147 167.377 59.9319ZM171.006 16.1025C169.642 16.1025 168.484 15.6229 167.531 14.6639C166.577 13.7049 166.1 12.553 166.1 11.2083C166.1 9.84552 166.575 8.68723 167.525 7.73343C168.475 6.77963 169.632 6.30273 170.994 6.30273C172.358 6.30273 173.516 6.77773 174.469 7.72773C175.423 8.67773 175.9 9.83412 175.9 11.1969C175.9 12.5416 175.425 13.6954 174.475 14.6582C173.525 15.621 172.368 16.1025 171.006 16.1025Z" fill="#5E0030" fill-opacity="0.3"/>
</g>
<mask id="mask3_291_73" style="mask-type:alpha" maskUnits="userSpaceOnUse" x="205" y="0" width="69" height="69">
<rect x="205.2" width="68.4" height="68.4" fill="#D9D9D9"/>
</mask>
<g mask="url(#mask3_291_73)">
<path d="M235.777 59.9319V45.7645H229.606C228.914 45.7645 228.351 45.4767 227.917 44.901C227.483 44.3258 227.385 43.7147 227.622 43.0677L234.062 23.6279C234.441 22.5007 235.128 21.6241 236.124 20.998C237.119 20.3725 238.209 20.0597 239.393 20.0597C240.578 20.0597 241.67 20.3725 242.669 20.998C243.668 21.6241 244.358 22.5007 244.738 23.6279L251.179 43.0677C251.416 43.7147 251.318 44.3258 250.884 44.901C250.45 45.4767 249.887 45.7645 249.194 45.7645H243.023V59.9319C243.023 60.5147 242.822 61.003 242.419 61.3968C242.016 61.7906 241.532 61.9875 240.968 61.9875H237.833C237.269 61.9875 236.785 61.7906 236.382 61.3968C235.979 61.003 235.777 60.5147 235.777 59.9319ZM239.406 16.1025C238.043 16.1025 236.885 15.6229 235.931 14.6639C234.977 13.7049 234.501 12.553 234.501 11.2083C234.501 9.84552 234.976 8.68723 235.926 7.73343C236.876 6.77963 238.032 6.30273 239.395 6.30273C240.758 6.30273 241.916 6.77773 242.87 7.72773C243.823 8.67773 244.3 9.83412 244.3 11.1969C244.3 12.5416 243.825 13.6954 242.875 14.6582C241.925 15.621 240.769 16.1025 239.406 16.1025Z" fill="#5E0030" fill-opacity="0.3"/>
</g>
<mask id="mask4_291_73" style="mask-type:alpha" maskUnits="userSpaceOnUse" x="273" y="0" width="69" height="69">
<rect x="273.6" width="68.4" height="68.4" fill="#D9D9D9"/>
</mask>
<g mask="url(#mask4_291_73)">
<path d="M304.177 59.9319V45.7645H298.006C297.314 45.7645 296.751 45.4767 296.316 44.901C295.882 44.3258 295.784 43.7147 296.021 43.0677L302.462 23.6279C302.84 22.5007 303.527 21.6241 304.523 20.998C305.518 20.3725 306.608 20.0597 307.793 20.0597C308.978 20.0597 310.07 20.3725 311.069 20.998C312.068 21.6241 312.757 22.5007 313.138 23.6279L319.578 43.0677C319.816 43.7147 319.717 44.3258 319.283 44.901C318.849 45.4767 318.286 45.7645 317.594 45.7645H311.423V59.9319C311.423 60.5147 311.221 61.003 310.819 61.3968C310.415 61.7906 309.932 61.9875 309.367 61.9875H306.232C305.668 61.9875 305.184 61.7906 304.781 61.3968C304.378 61.003 304.177 60.5147 304.177 59.9319ZM307.806 16.1025C306.442 16.1025 305.284 15.6229 304.331 14.6639C303.377 13.7049 302.9 12.553 302.9 11.2083C302.9 9.84552 303.375 8.68723 304.325 7.73343C305.275 6.77963 306.431 6.30273 307.794 6.30273C309.157 6.30273 310.316 6.77773 311.269 7.72773C312.223 8.67773 312.7 9.83412 312.7 11.1969C312.7 12.5416 312.225 13.6954 311.275 14.6582C310.325 15.621 309.168 16.1025 307.806 16.1025Z" fill="#5E0030" fill-opacity="0.3"/>
</g>
<mask id="mask5_291_73" style="mask-type:alpha" maskUnits="userSpaceOnUse" x="0" y="68" width="69" height="69">
<rect y="68.3999" width="68.4" height="68.4" fill="#D9D9D9"/>
</mask>
<g mask="url(#mask5_291_73)">
<path d="M30.5771 128.332V114.164H24.4062C23.7141 114.164 23.151 113.877 22.7168 113.301C22.2827 112.726 22.1844 112.115 22.4219 111.468L28.8622 92.0278C29.2407 90.9006 29.9278 90.024 30.9234 89.3979C31.9185 88.7724 33.0084 88.4596 34.1931 88.4596C35.3782 88.4596 36.4702 88.7724 37.4692 89.3979C38.4681 90.024 39.1578 90.9006 39.5383 92.0278L45.9785 111.468C46.216 112.115 46.1177 112.726 45.6836 113.301C45.2494 113.877 44.6863 114.164 43.9942 114.164H37.8233V128.332C37.8233 128.915 37.6219 129.403 37.2191 129.797C36.8158 130.19 36.332 130.387 35.7677 130.387H32.6327C32.0684 130.387 31.5846 130.19 31.1813 129.797C30.7785 129.403 30.5771 128.915 30.5771 128.332ZM34.2059 84.5024C32.8427 84.5024 31.6844 84.0228 30.731 83.0638C29.7772 82.1048 29.3003 80.9529 29.3003 79.6082C29.3003 78.2454 29.7753 77.0871 30.7253 76.1333C31.6753 75.1795 32.8317 74.7026 34.1945 74.7026C35.5578 74.7026 36.716 75.1776 37.6694 76.1276C38.6232 77.0776 39.1001 78.234 39.1001 79.5968C39.1001 80.9415 38.6251 82.0953 37.6751 83.0581C36.7251 84.0209 35.5687 84.5024 34.2059 84.5024Z" fill="#5E0030" fill-opacity="0.3"/>
</g>
<mask id="mask6_291_73" style="mask-type:alpha" maskUnits="userSpaceOnUse" x="68" y="68" width="69" height="69">
<rect x="68.4004" y="68.3999" width="68.4" height="68.4" fill="#D9D9D9"/>
</mask>
<g mask="url(#mask6_291_73)">
<path d="M98.9775 128.332V114.164H92.8066C92.1145 114.164 91.5514 113.877 91.1172 113.301C90.6831 112.726 90.5848 112.115 90.8223 111.468L97.2625 92.0278C97.6411 90.9006 98.3282 90.024 99.3238 89.3979C100.319 88.7724 101.409 88.4596 102.593 88.4596C103.779 88.4596 104.871 88.7724 105.87 89.3979C106.868 90.024 107.558 90.9006 107.939 92.0278L114.379 111.468C114.616 112.115 114.518 112.726 114.084 113.301C113.65 113.877 113.087 114.164 112.395 114.164H106.224V128.332C106.224 128.915 106.022 129.403 105.619 129.797C105.216 130.19 104.732 130.387 104.168 130.387H101.033C100.469 130.387 99.985 130.19 99.5817 129.797C99.1789 129.403 98.9775 128.915 98.9775 128.332ZM102.606 84.5024C101.243 84.5024 100.085 84.0228 99.1314 83.0638C98.1776 82.1048 97.7007 80.9529 97.7007 79.6082C97.7007 78.2454 98.1757 77.0871 99.1257 76.1333C100.076 75.1795 101.232 74.7026 102.595 74.7026C103.958 74.7026 105.116 75.1776 106.07 76.1276C107.024 77.0776 107.5 78.234 107.5 79.5968C107.5 80.9415 107.025 82.0953 106.075 83.0581C105.125 84.0209 103.969 84.5024 102.606 84.5024Z" fill="#5E0030" fill-opacity="0.3"/>
</g>
<mask id="mask7_291_73" style="mask-type:alpha" maskUnits="userSpaceOnUse" x="136" y="68" width="70" height="69">
<rect x="136.8" y="68.3999" width="68.4" height="68.4" fill="#D9D9D9"/>
</mask>
<g mask="url(#mask7_291_73)">
<path d="M167.377 128.332V114.164H161.206C160.514 114.164 159.951 113.877 159.517 113.301C159.082 112.726 158.984 112.115 159.222 111.468L165.662 92.0278C166.041 90.9006 166.728 90.024 167.723 89.3979C168.718 88.7724 169.808 88.4596 170.993 88.4596C172.178 88.4596 173.27 88.7724 174.269 89.3979C175.268 90.024 175.958 90.9006 176.338 92.0278L182.778 111.468C183.016 112.115 182.918 112.726 182.483 113.301C182.049 113.877 181.486 114.164 180.794 114.164H174.623V128.332C174.623 128.915 174.422 129.403 174.019 129.797C173.616 130.19 173.132 130.387 172.568 130.387H169.433C168.868 130.387 168.384 130.19 167.981 129.797C167.578 129.403 167.377 128.915 167.377 128.332ZM171.006 84.5024C169.642 84.5024 168.484 84.0228 167.531 83.0638C166.577 82.1048 166.1 80.9529 166.1 79.6082C166.1 78.2454 166.575 77.0871 167.525 76.1333C168.475 75.1795 169.632 74.7026 170.994 74.7026C172.358 74.7026 173.516 75.1776 174.469 76.1276C175.423 77.0776 175.9 78.234 175.9 79.5968C175.9 80.9415 175.425 82.0953 174.475 83.0581C173.525 84.0209 172.368 84.5024 171.006 84.5024Z" fill="#5E0030" fill-opacity="0.3"/>
</g>
<mask id="mask8_291_73" style="mask-type:alpha" maskUnits="userSpaceOnUse" x="205" y="68" width="69" height="69">
<rect x="205.2" y="68.3999" width="68.4" height="68.4" fill="#D9D9D9"/>
</mask>
<g mask="url(#mask8_291_73)">
<path d="M235.777 128.332V114.164H229.606C228.914 114.164 228.351 113.877 227.917 113.301C227.483 112.726 227.385 112.115 227.622 111.468L234.062 92.0278C234.441 90.9006 235.128 90.024 236.124 89.3979C237.119 88.7724 238.209 88.4596 239.393 88.4596C240.578 88.4596 241.67 88.7724 242.669 89.3979C243.668 90.024 244.358 90.9006 244.738 92.0278L251.179 111.468C251.416 112.115 251.318 112.726 250.884 113.301C250.45 113.877 249.887 114.164 249.194 114.164H243.023V128.332C243.023 128.915 242.822 129.403 242.419 129.797C242.016 130.19 241.532 130.387 240.968 130.387H237.833C237.269 130.387 236.785 130.19 236.382 129.797C235.979 129.403 235.777 128.915 235.777 128.332ZM239.406 84.5024C238.043 84.5024 236.885 84.0228 235.931 83.0638C234.977 82.1048 234.501 80.9529 234.501 79.6082C234.501 78.2454 234.976 77.0871 235.926 76.1333C236.876 75.1795 238.032 74.7026 239.395 74.7026C240.758 74.7026 241.916 75.1776 242.87 76.1276C243.823 77.0776 244.3 78.234 244.3 79.5968C244.3 80.9415 243.825 82.0953 242.875 83.0581C241.925 84.0209 240.769 84.5024 239.406 84.5024Z" fill="#5E0030" fill-opacity="0.3"/>
</g>
<mask id="mask9_291_73" style="mask-type:alpha" maskUnits="userSpaceOnUse" x="273" y="68" width="69" height="69">
<rect x="273.6" y="68.3999" width="68.4" height="68.4" fill="#D9D9D9"/>
</mask>
<g mask="url(#mask9_291_73)">
<path d="M304.177 128.332V114.164H298.006C297.314 114.164 296.751 113.877 296.316 113.301C295.882 112.726 295.784 112.115 296.021 111.468L302.462 92.0278C302.84 90.9006 303.527 90.024 304.523 89.3979C305.518 88.7724 306.608 88.4596 307.793 88.4596C308.978 88.4596 310.07 88.7724 311.069 89.3979C312.068 90.024 312.757 90.9006 313.138 92.0278L319.578 111.468C319.816 112.115 319.717 112.726 319.283 113.301C318.849 113.877 318.286 114.164 317.594 114.164H311.423V128.332C311.423 128.915 311.221 129.403 310.819 129.797C310.415 130.19 309.932 130.387 309.367 130.387H306.232C305.668 130.387 305.184 130.19 304.781 129.797C304.378 129.403 304.177 128.915 304.177 128.332ZM307.806 84.5024C306.442 84.5024 305.284 84.0228 304.331 83.0638C303.377 82.1048 302.9 80.9529 302.9 79.6082C302.9 78.2454 303.375 77.0871 304.325 76.1333C305.275 75.1795 306.431 74.7026 307.794 74.7026C309.157 74.7026 310.316 75.1776 311.269 76.1276C312.223 77.0776 312.7 78.234 312.7 79.5968C312.7 80.9415 312.225 82.0953 311.275 83.0581C310.325 84.0209 309.168 84.5024 307.806 84.5024Z" fill="#5E0030" fill-opacity="0.3"/>
</g>
</svg>
