<?xml version="1.0" encoding="UTF-8"?>
<svg id="Layer_1" data-name="Layer 1" xmlns="http://www.w3.org/2000/svg" viewBox="0 0 74.74 152.1">
  <defs>
    <style>
      .cls-1 {
        stroke-width: .75px;
      }

      .cls-1, .cls-2, .cls-3 {
        fill: none;
        stroke: #010101;
        stroke-miterlimit: 10;
      }

      .cls-2, .cls-3 {
        stroke-width: 5px;
      }

      .cls-3 {
        stroke-linecap: round;
      }
    </style>
  </defs>
  <path class="cls-2" d="M38.49,140.6c0,4.7,6.7,9.01,11.4,9.01h0c4.7,0,8.51-3.81,8.51-8.51v-26.36"/>
  <path class="cls-2" d="M17.89,114.73v26.36c0,4.7,3.81,8.51,8.51,8.51h.68c4.7,0,11.4-3.88,11.4-8.58"/>
  <path class="cls-2" d="M60.83,71.28c24.51,20.63,3.6,53.72-7.52,39.11-5.26-6.9,8.37-15.96,8.37-15.96"/>
  <line class="cls-2" x1="70.83" y1="106.13" x2="55.53" y2="102.57"/>
  <path class="cls-1" d="M49.19,113.68c0-2.07-1.83-3.76-4.07-3.76-1.71,0-3.17.98-3.78,2.36-.74-.56-1.69-.87-2.85-.87s-2.12.31-2.85.87c-.6-1.38-2.06-2.36-3.78-2.36-2.25,0-4.07,1.69-4.07,3.76s1.83,3.76,4.07,3.76c.4,0,.73-.32.73-.73,0-.05-.02-.09-.03-.13.09-.14.15-.3.15-.48,0-.52-.42-.93-.94-.93-.42,0-.76.27-.88.64-.97-.34-1.65-1.17-1.65-2.13,0-1.27,1.17-2.3,2.62-2.3s2.62,1.03,2.62,2.3c0,.01,0,.03,0,.04-.33.7-.52,1.52-.52,2.49,0,2.78,2.88,5.47,3.8,6.26v2.21c0,.4.33.73.73.73"/>
  <path class="cls-1" d="M38.49,125.41c.4,0,.73-.33.73-.73v-2.2c.92-.79,3.8-3.49,3.8-6.27,0-.97-.19-1.79-.52-2.49,0-.01,0-.03,0-.04,0-1.27,1.18-2.3,2.62-2.3s2.62,1.03,2.62,2.3c0,.97-.69,1.79-1.65,2.13-.12-.37-.46-.64-.88-.64-.52,0-.94.42-.94.93,0,.18.06.33.15.48,0,.05-.03.09-.03.13,0,.4.33.73.73.73,2.25,0,4.07-1.68,4.07-3.76"/>
  <line class="cls-2" x1="38.49" y1="132.77" x2="38.49" y2="141.02"/>
  <path class="cls-3" d="M35.71,80.68c-18.11-.64-32.27-15.83-31.64-33.94.52-14.91,10.92-27.14,24.68-30.65-.76-1.4-1.17-3-1.11-4.71.18-5.08,4.45-9.05,9.53-8.87,5.09.18,9.06,4.44,8.88,9.52-.05,1.48-.45,2.86-1.1,4.07,14.65,3.71,25.25,17.23,24.7,32.95-.64,18.11-15.83,32.27-33.94,31.64"/>
  <path class="cls-2" d="M71.01,61.4c1.98,9.43-1.3,7.5-2.89-.35-1.59-9.26,1.62-5.43,2.84.15l.05.2Z"/>
  <path class="cls-2" d="M5.27,61.47c-.59,9.62-3.24,6.89-2.69-1.1.91-9.35,3-4.8,2.7.9v.21Z"/>
  <path class="cls-2" d="M4.33,43.6c21.72-8.61,29.26-19.59,29.26-19.59,0,0,10.58,17.75,35.75,19.23"/>
  <circle class="cls-2" cx="36.97" cy="68.64" r="1.91"/>
  <path class="cls-2" d="M24.79,46.85l.7,5.4"/>
  <path class="cls-2" d="M13.22,48.53c.57,1.27,1.36,4.25,2.24,5.31.41.35,1.11,0,1.6-.24,1.66-1.01,3.46-1.27,5.33-1.43,1.29-.15,2.8.16,4.22.37,2.62.31,5.09.74,7.14,2.43"/>
  <ellipse class="cls-2" cx="24.69" cy="55.44" rx="2.09" ry="1.68" transform="translate(-8.53 4.65) rotate(-9.18)"/>
  <path class="cls-2" d="M48.37,47.11c.01.06,1.14,5.27,1.15,5.32"/>
  <path class="cls-2" d="M41.22,54.48c1.57-1.14,3.34-1.55,5.2-1.87,1.27-.26,2.8-.08,4.24.02,2.64.09,5.14.31,7.32,1.83,1.21.48.93-.74,1.12-2.26.11-1.71.2-2.88.29-4.29"/>
  <ellipse class="cls-2" cx="48.99" cy="55.68" rx="2.09" ry="1.68" transform="translate(-12.02 13.51) rotate(-14)"/>
  <polyline class="cls-2" points="17.89 142.2 38.44 141.66 57.58 141.66"/>
  <path class="cls-2" d="M23.04,110.54c4.78-6.9-7.62-15.96-7.62-15.96"/>
  <path class="cls-2" d="M13.59,73.32c-22.29,20.63-.67,51.83,9.45,37.22"/>
  <line class="cls-2" x1="7.1" y1="106.29" x2="21.02" y2="102.73"/>
</svg>